<?xml version="1.0" encoding="UTF-8"?>
<svg id="Capa_1" data-name="Capa 1" xmlns="http://www.w3.org/2000/svg" viewBox="0 0 841.89 1190.55">
  <defs>
    <style>
      .cls-1 {
        fill: #fff;
      }

      .cls-2 {
        fill: #101516;
      }

      .cls-3 {
        fill: #cb301c;
      }
    </style>
  </defs>
  <path class="cls-3" d="M439,430.55c10.28,17.5,44.47,53.29,46.9,70.6,6.51,46.2-40.93,77.69-13.76,142.76,12.36,29.61,58.73,70.97,86.86,37.64,12.75,4.41,24.92,10.93,39,9-14.52,73.8-104.17,67.43-163,70-8.19-11.33-18.16-20.77-26.22-32.28-60.12-85.93-42.02-191.09,11.4-275.04,4.69-7.37,11.36-19.05,18.82-22.68Z"/>
  <path class="cls-2" d="M676.73,579.32c-17.26-11.95-13.27-23.85-44.26-21.8-70.16,4.65-46.42,91.97-73.47,124.03,12.75,4.41,24.92,10.93,39,9,5.27-26.8-2.61-61.76,5.83-83.67,9.18-23.87,28.26-13.53,45.64-13.29,23.85.32,47.67-1.74,71.53-.04-10.99-7.62-34.13-7.2-44.27-14.22Z"/>
  <path class="cls-2" d="M206,543.55c28.02,15.85,58.25,30.57,90.99,32.99-11.02-8.06-23.87-12.71-35.51-19.97-21.54-13.44-49.1-35.39-51.99-62.01,28.99,24.45,59.2,49.1,94.5,63.99-37.79-25.97-84.71-53.11-91.98-102.99,30.19,32.59,62.51,65.73,101.99,86.99-35.41-29.36-87.02-63.03-84.99-114.98,28.21,36.6,61.13,70.08,97.99,97.99-35.27-35.79-88.47-76.84-76.99-134l36.6,55.89c6.17,8.23,49.04,60.17,54.91,61.1,1.33.21,1.97-.04,1.47-1.47-.83-2.37-28.48-29.99-33.8-37.21-20.96-28.44-38.4-59.45-22.17-95.3l24.46,50.01c6.36,9.67,11.61,20.32,18.14,29.86,9.52,13.88,20.87,26.1,31.38,39.12,1.47.14,2.4.42,1.98-1.47-.44-2-13.43-16.71-15.81-20.19-22.39-32.67-34.49-56.56-14.34-94.99,1.14-2.18,10.63-17.24,11.67-17.33,1.46-.13,5.01,24.13,6.47,28.52,10.39,31.21,32.74,62.38,53.53,87.47-15.58-32.8-36.95-62.96-19.69-100.68,1.61-3.52,20.9-30.22,24.18-27.31,1.21,1.07,5.02,25.58,6.99,31.51,5.52,16.63,14.17,36.43,23.01,51.49-7.45,3.63-14.13,15.31-18.82,22.68-53.42,83.94-71.52,189.11-11.4,275.04,8.06,11.51,18.03,20.95,26.22,32.28-50.13,2.19-104.16-2.4-152.48,1.02-43.38,3.08-86.87,24.89-131.52,18.96l25.46-16.03c2.5-1.87,10.46-11.55,11.23-11.81,2.08-.68,21.65,1.25,26.84.88,48.11-3.36,86.27-26.37,131.46-40.05,2.92-5.46-20.99-6.06-25-6.98v-1c2.38-.14,16.29-.54,17-1.01.33-.22-3.81-6.63-4.17-6.81-4.67-2.33-26.62,2.64-32.83-5.16,4.36-.6,27.02,2.51,28.99.98.3-.23-2.83-6.65-3.17-6.81-6.07-3-31.96,2.33-39.84-5.68,5.15-1.3,33.79,2.21,36.01.49.25-.19-2.46-5.21-3-5.49-6.52-3.38-37.35,1.75-46.99-6.51,6.67-2.8,40.45,3.65,43.99,1,.25-.19-2.71-5.36-2.98-5.51-7.22-3.88-43.44,2.5-53.01-8.99,9.18-1.33,43.08,6.42,49.49,3.51,1.16-.53-.11-4.52-.66-4.85-2.63-1.58-60.94-1.53-59.83-10.67.35-2.84,53.64,7.34,56.99,4.5.27-.23-1.83-6.67-2.14-6.85-2.13-1.23-40.66-3.81-48.87-5.63-2.74-.61-21.31-5.25-20.98-8.02.4-3.32,62.67,9.49,66.48,7.52,1.12-.58.79-5.64-.42-6.58-2.15-1.68-45.07-4.74-54.09-6.91-9.48-2.29-20.08-4.58-26.95-12.04,9.08,1.93,76.02,15.26,78.98,12.51.18-.17.12-3.44-.44-4.06-2.15-2.37-52.49-7.84-62.98-11.01-1.43-.43-33.46-12.58-22.16-12.86,2.42-.06,25.07,7.31,30.57,8.44,6.59,1.36,50.63,9.7,53.01,7.49.19-.17.12-3.43-.44-4.06-1.28-1.41-32.15-4.17-37.74-5.26-17.35-3.39-48.26-8.25-58.82-23.68v-1c12.55,4.54,88.55,25.25,96.01,19.99.12-.09.09-2.86,0-2.97-1.18-1.27-27.97-7-33.51-9.01-17.5-6.34-51.98-21.45-57.48-41.02h1Z"/>
  <circle class="cls-1" cx="642.76" cy="573.82" r="5.98"/>
</svg>