<?xml version="1.0" encoding="UTF-8"?>
<svg id="Capa_1" data-name="Capa 1" xmlns="http://www.w3.org/2000/svg" viewBox="0 0 566.93 566.93">
  <defs>
    <style>
      .cls-1 {
        fill: #fff;
      }

      .cls-2 {
        font-family: Georgia, Georgia;
        font-size: 50px;
      }

      .cls-2, .cls-3 {
        isolation: isolate;
      }

      .cls-4, .cls-5 {
        fill: none;
      }

      .cls-6 {
        fill: #c42018;
      }

      .cls-7 {
        stroke: #000;
      }

      .cls-7, .cls-5 {
        stroke-linecap: round;
        stroke-linejoin: round;
      }

      .cls-5 {
        stroke: #1d1d1b;
        stroke-width: 3px;
      }

      .cls-8 {
        fill: #1d1d1b;
      }
    </style>
  </defs>
  <g id="Capa_11" data-name="Capa 11">
    <rect class="cls-6" x="-11.1" y="-31.49" width="589.13" height="636.59"/>
    <line class="cls-4" x1="266.18" y1="196.46" x2="268.01" y2="196.68"/>
  </g>
  <g id="Capa_10" data-name="Capa 10">
    <rect class="cls-6" x="21.53" y="11.07" width="516.03" height="73.1"/>
    <rect class="cls-6" x="25.89" y="485.1" width="489.3" height="90.01"/>
  </g>
  <g id="Capa_9" data-name="Capa 9">
    <path class="cls-7" d="M269.16,463.82c-.4-.95-.35-2.1.13-3h-18.31c.2.4.31.85.31,1.36,0,.55-.18,1.13-.5,1.64h18.36Z"/>
    <path class="cls-7" d="M301.93,460.82c.4.95.35,2.1-.13,3h111.39v-3h-111.26Z"/>
    <path class="cls-7" d="M222.32,460.82h-52.96v3h53.88c-.82-.72-1.13-1.9-.93-3Z"/>
    <path class="cls-7" d="M289.25,466.44c-.34,1.18-1.3,2.15-2.88,2.15s-2.55-.97-2.88-2.15h-114.12v10.48h243.83v-10.48h-123.95Z"/>
    <rect class="cls-7" x="169.36" y="478.28" width="243.83" height="3"/>
  </g>
  <g id="Capa_2" data-name="Capa 2">
    <path d="M260.73,127.89c37.16-5.5,48.23,23.75,49.58,27.81.07.21.23.87.38,1.03,2.03,2.31,3.86,35.16,3.86,35.16,0,0-.15,4.64,4.97,14.91,5.12,10.27,13.79,12.82,13.79,12.82-16.87-13.28-19.01-39.14-19.18-48.95-.09-5.04-.78-10.06-2.24-14.88-11.42-37.85-52.06-29.72-52.06-29.72-6.18-16.18-25.82-24.27-25.82-24.27,0,0,54.46-32.36,95.19,18.55,0,0,12.48,16.85,10.67,28.73,0,0,.48,22.55-4.97,37.34-5.45,14.79,1.09,36.24,14.06,36.61,0,0-7.4,2.3-14.79-.85s-23.27-10.91-23.27-48.61l-7.88.12s-2.3-39.15-37.34-30.67l-.6-3.15s35.88-7.27,40,31.15h1.33s-3.4-38.91-41.22-32.85l-4.45-10.27h0Z"/>
    <path d="M311.13,158.17c0,1.74-.57,3.15-1.27,3.15s-1.27-1.41-1.27-3.15.03-3.94.73-3.94,1.82,2.2,1.82,3.94h0Z"/>
    <path d="M198.36,167.17c-1.27-7.45.77-22.36.77-22.36,1.04.01.25,19.28-.09,20.27-.33.95,1.77,2.55,1.77,2.55-.45-5.27,1.64-12.45,1.82-13.73.08-.58.78-1.75,1.51-2.85,1.11-1.67,1.25-3.8.36-5.59l-.33-.65c1.64-15.18-8.18-40-8.18-40,0,0-8.27,24-7.73,40.37l-.41.55c-1,1.34-1.15,3.12-.39,4.61,1.84,3.64,4.92,10.92,4.08,17.66,0,0,2.18-1.73,1.91-3.45s-.27-21,1-19.73.09,22.27-.27,22.36l-.27,7.64h5l-.55-7.64h0Z"/>
    <path d="M191.9,176.71h9.15s1.88,1.64,0,4.43l-9.15.18s-2.03-2,0-4.6h0Z"/>
    <rect class="cls-8" x="193.9" y="183.26" width="5.09" height="256.38"/>
    <path class="cls-8" d="M231.46,281.7c-13.1,6.41-27.42-3.8-27.91-4.15,0,0-.02,0-.03,0-13.94,2.25-14.87-6.3-14.9-8.25,0-.27-.1-.52-.25-.74-2.43-3.39-1.16-6.24-.7-7.06.1-.17.14-.36.14-.55v-5.19h0c0-.33.14-.64.39-.86,1.7-1.53,8.8-6.72,16.79,4.28,0,0,0,0,.01.01.32.16,13.07,6.45,27.18-17.08.01-.02.04-.03.06,0l4.79,4.19s.02.03.01.05c-.29.66-6.27,14.5-5.2,28.22h0s-.36,7.13-.36,7.13c0,0,0,.03-.03.04h0Z"/>
  </g>
  <g id="Capa_5" data-name="Capa 5">
    <path class="cls-1" d="M254.45,152.08s-15.46-3.45-25.91,17.55c0,0-8,3.18-9.27,7.09s4.27,21.91,27.64,20.91c23.37-1,46.27.04,46.27.04l1.64-23.77-12.09-16.15-28.27-5.67h0Z"/>
    <path class="cls-1" d="M248.59,192.94s7.36,10.73,8,10.64,22-4.64,22-4.64l1.14-11.44-23.77-3.25-7.36,8.68h0Z"/>
  </g>
  <g id="Capa_6" data-name="Capa 6">
    <path class="cls-1" d="M221.3,182.59s-3.58,3.76-3.45,7.45l4.48-5.79-1.03-1.67h0Z"/>
    <path class="cls-1" d="M223.3,186.08s-5.18,5.83-5.06,9.53l6.09-7.86-1.03-1.67h0Z"/>
    <path class="cls-1" d="M224.46,188.83s-3.89,5.17-3.76,10.25l4.88-7.96-1.12-2.29h0Z"/>
    <path class="cls-1" d="M225.27,190.07s-1.12,8.84,1.08,13l.75-11.54-1.83-1.46h0Z"/>
    <path class="cls-1" d="M240.8,196.3s1.28,5.03,4.47,6.89l-2.51-6.88-1.96-.02h0Z"/>
    <path class="cls-1" d="M244.82,196.46s2.18,7.49,5.37,9.35l-3.41-9.34-1.96-.02Z"/>
    <path class="cls-1" d="M247.76,196.95s2.3,6.04,6.68,8.64l-4.14-8.37-2.54-.27h0Z"/>
    <path class="cls-1" d="M249.24,196.93s6.88,5.65,11.58,6.01l-9.37-6.78-2.21.76h0Z"/>
    <path class="cls-1" d="M227.86,192.64s-.75,5.13,1.48,8.08l.33-7.32-1.8-.77h0Z"/>
    <path class="cls-1" d="M231.5,194.33s-.87,7.75,1.36,10.7l.45-9.93-1.8-.77h0Z"/>
    <path class="cls-1" d="M233.85,195.05s-.2,6.46,2.84,10.54l-.6-9.32-2.24-1.23h0Z"/>
    <path class="cls-1" d="M235.41,196.46s4.18,7.87,8.38,10l-6.04-9.86-2.33-.15h0Z"/>
    <path class="cls-1" d="M238.24,196.3s1.28,5.03,4.47,6.89l-2.51-6.88-1.96-.02h0Z"/>
    <path class="cls-1" d="M242.26,196.46s2.18,7.49,5.37,9.35l-3.41-9.34-1.96-.02Z"/>
    <path class="cls-1" d="M245.2,196.95s2.3,6.04,6.68,8.64l-4.14-8.37-2.54-.27h0Z"/>
    <path class="cls-1" d="M246.68,196.93s6.88,5.65,11.58,6.01l-9.37-6.78-2.21.76h0Z"/>
  </g>
  <g id="Capa_7" data-name="Capa 7">
    <path d="M340.09,242.3c.05.07.09.13.13.21,1.78,3.38,3.71,6.68,5.29,10.14,3.36,7.38,5.65,15.11,7.33,23.04,1.76,8.35,1.91,16.81,1.85,25.24-.07,9.03-1.29,17.98-4.42,26.52-1.95,5.31-4.13,10.56-7.45,15.23-.1.14-.22.26-.35.36-.2.15-.4.3-.55.48-2.38,2.77-4.64,5.61-7.58,7.9-10.63,8.26-21.75,7.62-32.29,1.87-11.1-6.07-18.34-16.03-23.91-26.94-6.13-12.01-9.17-25.03-9.46-38.61-.2-9.51.38-18.92,2.34-28.29,2.3-10.97,6.94-20.69,14.53-28.87,5.25-5.66,11.58-9.6,19.67-9.96,8.31-.38,15.4,2.59,21.93,7.43,2.48,1.84,4.64,4.04,7.04,5.97.02.09.07.13.16.14,1.68,2.88,3.78,5.47,5.75,8.14h.01ZM281.09,263.38c-.29,1.47-.81,2.9-.83,4.43,0,.11-.01.23-.04.34-.23,1.03-.56,2.04-.65,3.08-.64,7.34-.58,14.67.36,21.99,1.72,13.49,6.11,26.01,13.78,37.24,5.19,7.6,11.58,14.02,20.62,16.97,7.86,2.56,15.38,1.93,22.33-3.04,2.55-1.83,4.66-4.09,7.02-6.1,1.11-.94,1.46-2.33,1.87-3.65,1.31-4.28,2.73-8.4,3.87-12.73,1.87-7.08,1.76-14.51,2.96-21.75,1.11-6.66-.63-13.52-.7-20.31,0-.54-.19-1.09-.33-1.63-1.43-5.46-3.13-10.87-4.2-16.4-1.07-5.53-3.05-10.25-6.08-14.66-.94-1.36-1.84-2.76-2.78-4.12-3.97-5.74-8.47-10.96-15.02-13.8-5.63-2.45-11.6-3.2-17.43-.9-13.86,5.47-20.19,16.96-23.75,30.51-.02.08-.04.17-.05.25,0,.06-.01.13-.02.19-.03.24-.9,3.94-.93,4.08h0Z"/>
    <path d="M351.47,292.83c.1,8.08-1.53,14.22-3.7,20.25-.51,1.43-1.14,2.83-1.54,4.29-2.39,8.63-12.75,14.11-21.47,12.26-5.42-1.15-9.57-4.64-12.63-8.93-6.63-9.28-11.08-19.5-12.03-31.11-.48-5.83-.72-11.7-.08-17.43.96-8.71,2.95-17.26,8.68-24.46,5.07-6.38,13.23-6.79,19.18-4.34,7.43,3.06,11.7,9.19,15.71,15.66,2.69,4.35,3.49,9.31,4.79,14.09,1.9,6.96,3.11,14.06,3.1,19.72h0Z"/>
    <path class="cls-6" d="M319.82,309.25c2.25,3.42,4.87,6.59,8.86,8.2,3.18,1.28,7.35.71,9.37-1.28-6.68,1.1-9.36.4-13.07-3.53-1.09-1.15-2.15-2.36-3.08-3.64-4.9-6.77-7.09-14.47-7.54-22.72-.33-6.02.09-11.93,3.25-17.29,2.37-4.02,5.71-6.42,10.63-6.38,4.5.04,7.56,2.68,10.41,5.06-1.37-2.12-3.13-3.78-5.7-5.26-4.3-2.47-9.11-2.13-13.01.98-3.95,3.14-6.04,7.56-6.8,12.26,0,0-2.33,21.87,6.68,33.62h0Z"/>
    <path d="M330.52,236.98s-9.6-11.27-24.61-5.08c-15,6.18-26.73,32.41-23.82,56.03,2.91,23.61,14.09,55.43,40.19,59.16,0,0,10.47,1.53,18.73-7.73,0,0-21.83,14.86-39.82-8-17.99-22.86-15.64-50.37-15.64-50.37,0,0-1.09-19.55,9.64-36.46,10.73-16.91,26.27-13.55,32.82-9l2.52,1.45h0Z"/>
    <g class="cls-3">
      <text class="cls-2" transform="translate(97.93 532.72)"><tspan x="0" y="0">Ολυμπιακός FC</tspan></text>
    </g>
  </g>
  <g id="Capa_8" data-name="Capa 8">
    <path d="M345.46,327.54l-.76-.79h.06s-3.61,2.9-3.61,2.9l.09-.26,1.66,5.31c.04.13.02.27-.06.37-.43.59-.87,1.15-1.34,1.69-1.51,1.61-3.11,3.48-5.5,3.71-.4.02-.72-.3-.74-.68-.17-1.28-.36-3.02-.48-4.28-.03-.46.31-.87.78-.91l2-.17-.76.88-.18-3.19.94.78-4.82.64.73-.83v8.3c0,.44-.35.8-.78.83l-6.36.43c-.51.04-.94-.41-.88-.91l.36-3.73c.04-.44.42-.77.86-.75l2.82.09-.86.88-.18-3.73.83.79h-4.27l.79-.55-2.45,6.94c-.14.39-.53.61-.93.54l-6.6-1.12c-.45-.08-.76-.51-.68-.96.01-.08.04-.15.07-.21l1.87-4c.18-.39.64-.58,1.04-.43l3,1.09-1.1.62.82-4.09.45.91-3.27-1.64,1.04-.24-4.82,6.36c-.27.35-.75.43-1.12.2l-4.64-3c-.43-.27-.51-.88-.17-1.26l3.27-3.64c.25-.28.65-.35.98-.2l2.27,1.08-1.08.34,1.5-2.63.17,1.04-3.08-2.73,1.15-.04-5.86,6c-.32.33-.85.33-1.18.01-.03-.03-.05-.06-.08-.09l-4.64-6c-.27-.35-.22-.83.1-1.12l3.27-3.02c.38-.35,1.01-.27,1.28.18l2.36,3.84-1.3-.16,3.32-3.27-.08,1.09c-1.31-1.8-3.32-4.34-4.59-6.14l1.2.13-6.56,5.3c-.22.2-.57.18-.75-.05-.03-.03-.05-.07-.07-.11l-3.8-8.27c-.05-.09-.02-.2.07-.26l4.11-2.56-3.89,2.9.07-.26,4.38,7.98-.82-.16,6.17-5.75c.34-.32.88-.28,1.17.08.82,1.01,1.57,2.07,2.34,3.11l2.3,3.07c.25.34.21.8-.08,1.09l-3.32,3.27c-.33.33-.85.32-1.18,0-.05-.05-.08-.1-.12-.15l-2.36-3.84,1.28.18-3.27,3.02.1-1.12,4.64,6-1.25-.07,5.86-6c.31-.32.82-.33,1.15-.04l3.08,2.73c.3.27.36.7.17,1.04l-1.5,2.63c-.22.38-.69.53-1.08.34l-2.27-1.08.98-.2-3.27,3.64-.17-1.26,4.64,3-1.12.2,4.82-6.36c.25-.33.68-.42,1.04-.24l3.27,1.64c.34.17.52.55.45.91l-.82,4.09c-.1.5-.63.8-1.1.62l-3-1.09,1.04-.43-1.87,4-.62-1.18,6.6,1.12-.93.54,2.45-6.94c.12-.34.44-.55.79-.55h4.27c.45,0,.81.35.83.79l.18,3.73c.03.48-.38.89-.86.88l-2.82-.09.85-.75-.36,3.73-.88-.91,6.36-.43-.78.83v-8.3c0-.42.32-.77.73-.83l4.82-.64c.48-.07.92.3.94.78l.19,3.19c.03.45-.31.84-.76.88l-2,.2.78-.93c.14,1.25.17,3.02.25,4.28l-.74-.68c1.11,0,2.32-.87,3.22-1.59,1.03-.85,2-1.84,2.87-2.85l-.08.4s-1.25-5.42-1.25-5.44c-.02-.1.02-.19.1-.25l3.85-2.57s.05-.01.06,0l.69.85h0Z"/>
    <path d="M301.64,317.72c1.1-.57,2.71-1.82,3.75-2.55l-.03.15-3.96-6.09.35.11-7.12,3.33c-.23.11-.5-.01-.58-.25l-2.78-7.31c-.13-.33.08-.7.41-.77l4.43-1.18c.38-.1.76.15.83.53l.84,3.9-.91-.6,4.04-.99-.61,1.09c-.86-2.35-1.63-4.73-2.45-7.09l1.12.49c-1.9.8-3.8,1.51-5.83,1.94-.76.13-1.55.26-2.33.1-.35-.05-.6-.33-.64-.67l-1.67-9.27c-.08-.45.22-.89.67-.97.03,0,.05,0,.08,0l5.13-.45c.48-.04.89.33.91.8l.18,4.82-.97-.79,3.27-.55-.7.88-.52-7.17.83.78h-8.48c-.46,0-.83-.38-.83-.83v-4.65c0-.46.38-.83.83-.83h8.12l-.83.82.15-10.33.83.85h-4.45l.83-.83v2.96c0,.46-.38.83-.83.83-.04,0-.08,0-.12,0l-3.82-.54c-.44-.06-.75-.46-.71-.9l.64-6.91c.04-.46.45-.8.91-.75l8.45.82-.9.69.64-3.73.64.95-3.73-.82,1.01-.75-.09,1.27c-.03.53-.57.9-1.07.74l-4.27-1.27c-.44-.13-.69-.59-.56-1.03l1.91-6.7c.13-.48.68-.74,1.13-.54l6.64,2.88-1.14.55,1.45-5.46.4.94-3.36-1.9,1.24-.66-.15,1.9c-.04.46-.44.8-.9.77.12.19-4.11-1.98-4.15-1.98-.41-.2-.58-.69-.39-1.1l2.18-4.65c.2-.42.69-.6,1.11-.4,0,0,.01,0,.02,0l7.55,3.73-1.1.35,2.55-4.64.19,1.03-3.09-2.64,1.16-.08-1.73,1.93c-.25.28-.66.35-.98.2l-4-1.93c-.41-.2-.59-.7-.39-1.11.05-.1.11-.18.18-.25l5.64-5.27c.31-.29.78-.3,1.1-.04l5.09,4.14-.97-.06,4.73-2.95-.24,1.19-2.18-3.09,1.2.18-2.09,1.64c-.35.27-.84.22-1.13-.1l-2.64-2.91c-.31-.34-.28-.87.06-1.18.06-.05.12-.1.19-.13l5.27-2.64c.37-.19.82-.07,1.05.26l4,5.64-.81-.34,5-.78-.68,1.02-.73-2.95.87.63-3.64.27c-.38.03-.72-.2-.85-.55l-1.18-3.27c-.16-.43.07-.91.5-1.07,1.24-.15,2.51-.07,3.76-.11,1.58.03,3.22-.06,4.8.36.3.12.63.24.79.75.03.12.03.22.04.32v.21s.09,1.71.09,1.71l.16,3.43-.52-.63,5.78,1.78-.75.45.5-2.15.38.64-4.07-1.35c-.26-.08-.4-.37-.3-.62l.86-2.08c.08-.22.33-.33.55-.24.03,0,5.76,2.93,5.79,2.95.1.05.17.15.17.27l-.09,4.18-.08-.16,2.85,2.43-.18.03,1.41-2.03v.08s-1.95-1.83-1.95-1.83l2.04,1.73s.03.05.01.08l-1.32,2.09c-.04.06-.12.07-.18.03l-2.96-2.3c-.05-.04-.08-.1-.08-.16l-.09-4.18.17.27-5.88-2.7.58-.23-.78,2.11-.3-.62,4.12,1.19c.28.08.44.36.38.64l-.41,2.17c-.06.33-.4.54-.72.45,0-.02-5.86-1.54-5.88-1.55-.3-.08-.5-.34-.52-.63l-.3-3.5-.15-1.75-.02-.22v-.05s0-.03,0-.03c0,.04,0,.13.03.19.07.25.2.33.23.36.09.06.07.04.04.03-.03,0-.08-.02-.13-.03-2.47-.31-5.08-.22-7.59-.18l.76-1.12,1.18,3.27-.85-.55,3.64-.27c.41-.03.78.24.87.63l.73,2.95c.12.47-.2.95-.68,1.03l-5,.78c-.32.05-.63-.09-.81-.34l-4-5.64,1.05.26-5.27,2.64.25-1.3,2.64,2.91-1.13-.1,2.09-1.64c.38-.29.92-.21,1.2.18l2.18,3.09c.28.39.17.94-.24,1.19l-4.73,2.95c-.31.19-.7.16-.97-.06l-5.09-4.14,1.1-.04-5.64,5.27-.21-1.36,4,1.93-.98.2,1.73-1.93c.3-.34.82-.37,1.16-.08l3.09,2.64c.3.26.38.7.19,1.03l-2.55,4.64c-.22.39-.7.54-1.1.35l-7.55-3.73,1.13-.39-2.18,4.65-.39-1.1,3.85,1.9-1.2.68.15-1.9c.04-.46.44-.8.9-.77.13,0,.24.05.34.1l3.36,1.9c.34.19.49.58.4.94l-1.45,5.46c-.12.45-.58.71-1.02.59-.04-.01-.08-.03-.12-.04l-6.64-2.88,1.13-.54-1.91,6.7-.56-1.03,4.27,1.27-1.07.74.09-1.27c.03-.46.43-.8.89-.77.04,0,.08,0,.12.02l3.73.82c.44.1.72.52.64.95l-.64,3.73c-.08.43-.47.73-.9.69l-8.45-.82.91-.75-.64,6.91-.71-.9,3.82.54-.95.83v-2.96c0-.46.38-.83.83-.83h4.45c.46,0,.84.38.83.85l-.15,10.33c0,.45-.38.82-.83.82h-8.12l.83-.83v4.65l-.83-.83h8.48c.44,0,.8.34.83.78l.52,7.17c.03.43-.28.81-.7.88l-3.27.55c-.49.08-.95-.29-.97-.79l-.18-4.82.91.8-5.13.45.75-.98,1.67,9.27-.63-.67c1.18.12,2.34-.28,3.47-.6,1.23-.39,2.47-.85,3.65-1.35.44-.2.96.03,1.12.49.83,2.37,1.69,4.73,2.47,7.11.15.46-.14.97-.62,1.06l-4.08.83c-.42.1-.84-.17-.91-.6l-.68-3.93.83.53-4.48,1,.41-.77,2.49,7.42-.58-.25,7.25-3.04c.13-.06.28,0,.35.11l3.68,6.27c.03.05.02.12-.03.15-1.06.64-2.74,1.86-3.88,2.37h0l-.03.02Z"/>
    <polygon class="cls-7" points="201.78 440.85 201.78 445.31 199 445.31 199 462.07 193.42 462.07 193.42 445.31 190.69 445.31 190.69 440.85 201.78 440.85"/>
  </g>
  <g id="Capa_3" data-name="Capa 3">
    <path class="cls-5" d="M266.28,301.72c-3.12-6.02-.17-32.82,1.02-42.4.21-1.73-1.14-3.26-2.88-3.23-17.75.24-28.42-11.55-28.42-11.55,0,0-10.98,46.73-2.07,57.19h32.36,0Z"/>
    <path class="cls-5" d="M240.59,248.47s-6.14,38.98-1.5,53.25"/>
    <path class="cls-5" d="M247.37,252.43s-3.19,42.48-.46,49.29"/>
    <path class="cls-5" d="M256.76,255.44s-2.76,39.74-.67,46.29"/>
    <path class="cls-5" d="M231.34,271.46s1.67,3.73,5.42,2.23c.71-.28,1.51-.26,2.22.05,1.32.58,3.62,1.19,5.93-.06.83-.45,1.81-.52,2.67-.12,1.51.71,4.13,1.46,7.1.15.71-.31,1.52-.34,2.24-.05,2.05.83,6.43,2.02,9.01-1.57"/>
    <path d="M356.3,432.48c.56.42,1.11.83,1.67,1.25.59.48,1.13,1.03,1.76,1.43,11.9,7.49,24.85,12.08,38.74,14.12,2.75.4,5.45,1,7.93,2.3.72.38,1.55.85,1.5,1.83-.05,1.07-.97,1.47-1.8,1.8-2.89,1.18-5.91,1.99-8.96,2.56-14.43,2.71-28.83,1.96-43.22-.53-3.14-.54-6.1-1.88-9.32-1.95-7.92-2.87-15.9-5.61-23.19-9.95-2.84-2.31-6.18-3.85-9.22-5.83h0c-1.73-1.78-1.34-3.69-.44-5.72.78-1.76,1.52-3.57,2.04-5.42,3.01-10.6,2.45-21.2-.04-31.78.43,2.73.14,5.48.28,8.22.41,7.72.03,15.39-2.33,22.81-2.53,7.95-4.02,16.08-4.58,24.39h0c-.77.3-.84.95-.83,1.65h-.03c-2.83,3.01-5.68,6-8.14,9.34-1.63,2.22-3.62,3.11-5.2,1.82-1.46-1.19-2.25-.73-3.42.33-2.15,1.95-4.87,1.65-6.59-.69-.6-.82-1.11-.88-1.89-.43-.66.38-1.33.77-2.03,1.03-2.39.9-4.83-.19-5.52-2.6-.3-1.03-.84-.63-1.4-.61-1.22.03-1.64-.58-1.3-1.72.3-1,.82-1.87,1.43-2.73,1.13-1.57,3.03-2.17,4.23-3.62,2.51-1.8,5.46-2.52,8.33-3.46,3.63-1.2,6.58-4.78,6.38-8.32-.34-6.2-2.65-11.74-6.38-16.7-3.13-6.27-7.8-11.55-11.22-17.65-4.2-7.49-5.83-15.66-7.13-24.13.22.18.32.22.31.25-1.45,12.91,2.45,24.13,10.76,33.94,1.18,1.4,1.28,2.48.13,3.97-2.45,3.16-3.84,6.8-4.76,10.7-.99,4.21-.71,8.4-.48,12.6.12,2.09-.54,3.75-1.91,5.28-3.37,3.79-7.61,6.1-12.4,7.53-1.38.41-2.83.62-3.99,1.59l-.17.07c-.98-.11-1.84.15-2.54.87h-.02c-.97-.16-1.72.37-2.53.77-2.11,1.07-4.25,2.05-6.71,1.94-.84-.04-1.86.02-2.27-.76-.9-1.72-1.9-1.02-2.99-.35-.65.4-1.29.82-1.99,1.1-2.24.9-5.05,1.04-6.42-1.48-.59-1.08-1.45-.51-2.18-.26-.92.32-1.83.88-2.7.03-.95-.93-.61-2.13-.23-3.11.9-2.34,2.61-4.03,4.74-5.33,4.44-2.73,9.42-3.05,14.41-3.28,2.58-.11,5.12-.37,7.6-1.08,2.63-.75,4.52-2.72,4.3-4.95-.34-3.37-.91-6.73-2.93-9.62-.21-.43-.38-.88-.63-1.29-2.49-4.14-5.01-8.25-7.48-12.4-4.66-7.84-7.81-16.33-10.13-25.09-2.73-10.31-3.7-20.86-3.16-31.51.19-3.76-1.17-6.59-3.91-8.88-1.24-1.04-1.75-2.17-1.53-3.79,1.1-8.02,2.14-16.04,3.19-24.06.1-.72.49-1.98-.25-2.06-2.9-.3-1.98-2.23-1.9-3.85,1.18-1.45,1.25-3.33,1.92-4.99,1.65-4.11,2.9-8.36,4.03-12.65.3-1.15.14-2.11-.48-3.15-1.48-2.49-2.19-5.22-2.15-8.13.04-2.91.05-5.83.11-8.74.03-1.52-.42-2.13-2.12-1.66-3.51.96-7.1,1.08-10.73.71-4.48-.45-8.32-2.45-12.12-4.65-3.55-2.05-5.8-.84-5.93,3.1-.02.63-.01,1.25-.01,1.87.02,50.9.05,101.81.07,152.71,0,2.39-.38,2.65-2.77,2.78-2.12.11-2.52-.9-2.5-2.77.08-10.68.06-21.36.08-32.04.08-41.47.24-82.95-.03-124.42-.01-1.86-.48-3.15-2.07-4.39-3.8-2.98-3.94-7.63-4.79-11.9-.03-.13.05-.27.09-.4.47-1.48.5-2.99.51-4.53.02-3.13,1.2-4.78,4.19-5.63,1.66-.47,2.28-1.28,2.26-3.06-.09-10.96-.07-21.91-.08-32.87,0-10.47,0-20.94,0-31.41,0-1.01-.07-1.96,1.2-2.3,2.8-.74,3.88.09,3.88,2.98-.02,21.71-.03,43.42-.05,65.12,0,.83,0,1.65.52,2.39,3.63,5.26,8.61,6.75,14.78,4.73,8.25-2.69,13.63-8.46,17.67-15.79.47-.85.83-1.86.61-2.8-.6-2.65-.48-5.21.58-7.72,2.82-1.97,5.52-4.1,8.27-6.17,1.5-1.13,3.45-1.45,5.34-.86.86.27,1.55.18,2.01-.53,1.98-2.99,3.74-6.09,4.31-9.71,1.11-1.13,1.05-2.69,1.33-4.06.8-3.81,1.31-7.65-1.21-11.13l-.09-1.16c3.39-.42,6.77.45,10.16,0,1.94-.26,3.92-.34,5.9-1.32-.95-.57-1.7-.26-2.43-.26-5.68-.02-11.51,1.03-16.86-2.71.26,1.03-.05,1.46-.58,1.62-.29.08-.64.09-1.01.08-3.53-.15-3.67-.26-5.27-3.87-.45-1.02-.67-2.01-2.28-1.77-4.11.62-7.58-1.19-10.83-3.38-1.41-.95-2.23-2.44-2.37-4.22-.03-.47.05-1-.52-1.24-1.38,1.83-.96,4.15,1.24,6.11,2,1.79,4.22,3.27,6.85,3.75,1.59.29,2.08,1.07,2.41,2.28.13.49.23,1.1-.6.86-1.15-.34-2.53-.34-2.93-1.92-.16-.63-.37-1.37-1.25-1.47-.68.7-.62,1.64-.91,1.48-.02-.6-.93-.36-1.32-.61-.41-.27-.81-.55-1.19-.85-3-2.3-5.22-5.29-7.14-8.52-2.6-4.37-1.7-7.21,3.07-8.89,3.37-1.19,5.45-3.33,6.81-6.48,1.23-2.85,3.12-5.28,5.59-7.12,4.74-3.53,9.98-6.33,15.51-8.28,6.35-2.25,13.06-3.06,19.81-3.16,6.88-.1,13.09,1.78,18.51,6.15,1.46,1.18,2.12,3.11,3.91,3.93l.06.13c.52,1.6,1.5,2.94,2.46,4.28h0c.35,1.35.89,2.63,1.71,3.78,1.52,4.72,2.9,9.47,3.4,14.43.5,12.5-1.24,24.91-1.59,37.38-.05,1.63-.67,2.29-2.23,2.65-2.7.63-5.38,1.53-7.7,3.02-7.37,4.7-12.83,11-16.72,18.96-3.39,6.93-5.69,14.05-6.99,21.59-2.73,15.89-1.92,31.61,2.17,47.17,3.48,13.24,9.82,24.92,19.51,34.66,5.42,5.45,11.42,10.1,19.02,12.15,1.77.48,2.3,1.73,2.66,3.32.75,3.29,1.27,6.65,2.59,9.79v.02c.66,2.82,1.52,5.58,2.53,8.3,2.38,6.43,4.88,12.8,8.34,18.73,6.62,11.33,14.97,21.21,25.35,29.27,2.25,1.75,4.21,4.02,7.12,4.84h0ZM248.88,251.57c.94.27,1.89.54,2.83.8,3.34,1.39,6.85,1.57,10.4,1.39,4.3-.22,6.18-2.1,6.67-6.83-3.15,1.51-5.93,3.65-9.64,4.14,2.01-1.9,4.16-3.18,6.27-4.48,4.45-2.75,4.98-3.14,5.57-5.29-8.48,5.83-16.98,8.98-26.28,2.16,2.13,3.32,5.65,4.34,8.67,6.17h-1.84c-4.92-1.19-8.72-3.75-11.33-8.27-1.33-2.31-2.83-4.57-4.38-6.77-.3-.43-.43-1.14-1.18-.83-.63.27-.62.9-.51,1.44.37,1.9.73,3.81,1.82,5.47,3.23,4.91,7.52,8.58,12.94,10.9h0ZM244.44,253.04c-.4-.83-1.19-1.22-1.88-1.75-1.52-1.16-2.15-.89-2.02,1.03-.04.08-.05.15-.04.24-1.85,4.95-1.94,10.15-1.99,15.33-.02,2.11,1.38,3.47,3.13,3.47,2.1,0,2.75-1.63,2.86-3.22.32-4.48,1.21-8.93,1.06-13.45.13-.9-.65-1.18-1.13-1.66h0ZM257.25,352.14c-1.43-1.51-1.73-3.29-1.68-5.34.15-5.89-.03-11.78.43-17.66.1-1.34-.07-2.45-1.94-1.73-.93.36-1.94.21-2.8-.33-1.07-.68-1.53-.35-1.56.83-.16,7.2-.33,14.41-.48,21.61-.03,1.37.53,2.35,1.84,2.96,1.13.53,2.14,1.26,2.38,2.66.25,1.48.81,2.78,2.63,2.43,1.77-.34,2.48-1.8,2.06-3.8-.05-.68-.35-1.22-.88-1.63h0ZM263.01,353.06c1.3.69,2.96.84,3.58,2.55.34.93.91,1.72,2.13,1.59,1.31-.13,1.88-1.08,2.26-2.13.38-1.07-.13-2.03-.99-2.48-2.28-1.21-2.54-3.23-2.55-5.45-.02-5.8-.05-11.6-.09-17.4,0-1.21.25-2.43-1.88-1.91-2.72.67-4.23-.4-5.23-3.07-.79-5.9-.07-11.87-.35-17.79h-.51c-.14,5.43-.28,10.87-.43,16.31l-.13,2.5c-.09.47-.25.94-.26,1.41-.17,6.72-.35,13.44-.47,20.16-.07,3.83.91,4.92,4.89,5.73h0ZM245.59,325.54c-2.55,2.39-2.85,2.39-6.82.12-1.01,1.55-.27,3.25-.39,4.87-.48,6.28-.77,12.58-1.18,18.87-.1,1.52.48,2.43,1.85,3.1,1.56.76,2.91,1.78,3.22,3.77.2,1.25,1.53,1.46,2.47.45,1.02-1.09,1.6-2.38,1.68-3.91.48-8.79.88-17.58.82-26.38.73-5.08.16-10.2.65-15.29.14-1.43.29-2.91-.49-4.32-.31,2.53-.26,5.06-.33,7.59-.1,3.76.47,7.62-1.5,11.14h0ZM270.82,324.91c-.52.85-.42,1.7-.41,2.5.04,6.65.25,13.31.11,19.96-.06,2.76.9,4.16,3.46,5,2.3.75,4.8,1.31,5.93,4.06.5,1.23,2.59.79,3.13-.6.47-1.18.37-2.36-.7-3.21-1.45-1.15-1.85-2.66-1.79-4.41.05-1.73-.01-3.47.03-5.2.03-1.15-.18-2.2-.84-3.15-3.33-4.73-6-9.85-8.91-14.95h0ZM253.75,274.12c-1.55,1.5-3.33,2.1-4.9,1.25-2.11-1.14-2.13.16-2.25,1.48-.42,4.9-.48,9.8-.42,14.71.03,2.58,1.02,4.68,3.29,6.09.86.53,1.59,1.56,2.73,1.05,1.2-.54,1.5-1.73,1.52-2.96.02-2.42.03-4.84.03-7.26,0-4.68,0-9.37,0-14.36h0ZM291.7,220.25c-.45-.15-.63-.26-.82-.27-.34-.02-.69,0-1.03.05-4.41.58-8.35,2.34-11.94,4.91-4.19,3-7.92,6.63-13.18,7.97-6.06,1.54-11.87,2.33-17.05-2.29-.3-.26-.63-.8-1.4-.47.76,2.58,2.79,3.84,5.01,4.76,3.63,1.5,7.37,1.72,11.18.63.72-.2,1.93-1.05,2.22-.25.41,1.13-1.15,1.26-1.85,1.83-.21.16-.52.19-.77.31-2.86,1.33-5.94,1.2-9.01,1.28,2.32,1.29,4.66,1.93,7.35,1.45,4.08-.72,6.95-3.24,9.68-6.02,4.86-4.94,10.29-8.99,17.02-11.09,1.65-.51,3.13-1.4,4.58-2.79h0ZM242.96,228.73c-.47,1.21-2.56-.06-2.54,1.78.01,1.2.3,2.33.75,3.43.92,2.26,2.39,4.21,3.83,6.12,3.09,4.12,7.07,6.25,12.43,4.98,3.32-.78,6.43-1.97,9.42-3.59,6.4-3.46,10.53-7.33,13.48-12.89-2.01,1.23-3.67,2.66-5.24,4.21-3.36,3.32-7.03,6.4-11.36,8.2-5.73,2.39-11.1,3.07-15.24-3.54-.3-.48-.61-1.28-1.61-1.15.12.85.3,1.66.33,2.48.03.61.8,1.49-.2,1.78-.8.24-1.06-.69-1.35-1.31-1.53-3.28-2.19-6.78-2.71-10.53h0ZM238.43,283.42c-.29,3.88-.24,7.75.56,11.56.4,1.92,2.15,3.91,3.24,3.53,1.94-.67,1.73-2.42,1.67-4.02,0-.14-.01-.28-.03-.41-.7-5.17-.58-10.34.04-15.51.11-.95.44-2.07.08-2.84-.6-1.28-1.87.02-2.81-.28-.2-.06-.42-.04-.61-.11-1.78-.6-2.21.25-2.15,1.85.08,2.07.02,4.14.02,6.21h0ZM261.64,256.66c-.9,0-1.8-.04-2.7.01-.93.06-1.63.54-1.67,1.52-.13,3.18-.44,6.38-.03,9.54.24,1.84,1.55,3.23,3.44,3.36,1.65.11,2.26-1.42,2.58-2.79.59-2.55,1.04-5.13,1.56-7.7.55-2.71-.51-4.02-3.19-3.94h0ZM236.05,283.16c.1-2,.13-4.01.31-6,.15-1.72.22-3.1-2.15-1.87-.2.1-.58.05-.8-.07-1.4-.73-1.61-.02-1.7,1.22-.32,4.43-.2,8.84.23,13.25.23,2.4.32,4.84,1.17,7.13.29.77.67,1.63,1.73,1.48,1.05-.14,1.5-.91,1.59-1.9.04-.41,0-.83-.03-1.24-.28-4-.5-8-.35-12.01h0ZM288.22,180.35c-1.09-1.28-2.06-2.3-3.32-3.07-2.37-1.45-2.35-1.48-.6-3.7,2.04-2.6,1.65-6.19-.85-7.92-2.57-1.77-7.11-1.05-8.62,1.44,1.27-.16,2.49-.4,3.71-.45,1.83-.09,3.69-.06,4.59,2,.82,1.86.36,4.15-1.29,5.66-.8.74-.87,1.42-.6,2.38.83,2.98.25,5.75-1.38,8.34-.29.47-.58.94-.87,1.4,1.78-1.03,2.65-2.66,3.38-4.39.37-.88.74-.99,1.47-.25,3.4,3.47,6.13,7.32,7.29,12.13.11.45-.03,1.11.96,1.42-.2-3.09-.83-5.85-2.03-8.51-1.18-2.63-3.09-4.77-5.06-7.04,1.37-.41,1.92.77,3.21.56h0ZM232.23,266.09c0,.63-.03,1.25,0,1.87.07,1.54.49,3.28,2.15,3.26,1.68-.02,1.7-1.87,1.78-3.26.16-2.97.19-5.95.8-8.88.6-2.9,1.14-5.83,1.73-8.73.29-1.44-.29-2.5-1.54-3.05-.91-.41-1.2.5-1.38,1.14-1.55,5.81-3.19,11.61-3.56,17.66h0ZM250.73,314.6h.26c0,2.14-.04,4.28.02,6.42.03,1.15-.06,2.58,1.6,2.64,1.58.06,2.38-1,2.48-2.49.3-4.34.55-8.68.79-13.03.1-1.85-1.14-2.1-2.6-2.1-1.5,0-2.6.3-2.56,2.14.05,2.14.01,4.28.01,6.42h0ZM243.86,313.61h.15c.1-1.87.1-3.75.33-5.6.23-1.75-.71-2.2-2.13-2.31-1.4-.1-2.32.47-2.36,1.95-.13,4.08-.23,8.17-.3,12.25-.03,1.54.47,3.34,2.03,3.36,1.72.02,2.2-1.85,2.26-3.43.08-2.08.02-4.15.02-6.23h0ZM235.64,333.49c.09-1.87.2-3.74.25-5.6.02-.93-.1-1.76-1.4-.94-.72.46-1.68.62-2.41.25-2.07-1.06-2.25.09-2.42,1.73-.71,6.95-1.45,13.91-2.29,20.84-.2,1.65.21,2.85,1.54,3.76.92.63,1.78,1.26,1.99,2.5.27,1.55,1.16,1.28,2.08.53,1.13-.92,1.38-2.3,1.4-3.57.1-6.52,1.15-12.97,1.25-19.49h0ZM263.09,284.29c0-2.63,0-5.27,0-7.9,0-1.17-.23-2.02-1.67-1.28-1.02.52-2.02.46-2.99-.07-1.61-.89-2.19-.38-2.18,1.39.03,5.48.04,10.96-.03,16.43-.03,2.61,1.15,4.31,3.44,5.42,1.03.5,2.12,1.07,3.14.46,1.08-.65.96-1.92.8-3.03-.55-3.79-.68-7.6-.52-11.41h0ZM263.06,314.49h.03c0,2.35-.05,4.7.02,7.05.04,1.23.75,2.15,2.06,2.16,1.28.02,1.79-.97,1.93-2.06.59-4.8-.15-9.51-1.06-14.19-.15-.79-.67-1.58-1.74-1.44-1.08.15-1.23.96-1.23,1.85v6.64h0ZM236.55,307.9c.06-1.05-.04-1.97-1.32-2.23-1.33-.27-1.71.7-2,1.63-.31.98-.43,2.03-.69,3.03-.87,3.36-1.29,6.8-1.8,10.22-.17,1.13-.2,2.32,1.28,2.65,1.43.32,1.94-.73,2.38-1.79.1-.25.24-.51.28-.78.63-4.24,1.25-8.48,1.87-12.72h0ZM283.33,347.53c-.08,3.19.75,4.81,2.73,5.33,2.37.61,4.9.81,6.05,3.6.41.99,1.63,1.12,2.54.52,1.05-.68.72-1.65.19-2.57-.4-.69-1.03-1.1-1.63-1.55-2.55-1.91-5.08-3.83-7.24-6.2-.61-.67-1.12-2.05-2.08-1.68-.9.35-.4,1.75-.57,2.55h0ZM254.79,258.63c.48-1.8-.49-2.85-2.65-3.1-.74-.08-1.46-.4-2.19-.63-1.44-.45-2.28-.06-2.34,1.58-.13,3.25-.32,6.5-.44,9.75-.04.98.22,1.9.65,2.8.8,1.63,2.24,2.08,3.81,1.9,1.63-.19,2.2-1.51,2.34-3,.28-2.96.52-5.93.82-9.29h0ZM237.71,231.68c-.29,3.45,1.26,6.16,3.53,8.57-.11-3.28-2.65-5.58-3.53-8.57ZM247.76,164.33c-1.23.05-1.8.76-1.82,1.85-.02,1.13.64,1.8,1.78,1.84,1.12.04,1.63-.7,1.66-1.7.03-1.07-.53-1.81-1.62-2h0ZM273.21,191.86c2.08-.59,3.97-1.5,5.59-2.92-2.02.68-3.99,1.45-5.59,2.92Z"/>
    <path d="M248.5,194.35c-.23,0-16.06,1.35-19.27-3.95s-.23-1.68-.23-1.68c0,0,13.86,5.59,17.09,3.45s2.41,2.18,2.41,2.18Z"/>
    <polygon points="239.5 194.33 247.5 195.24 246.78 193.85 238.86 193.26 239.5 194.33"/>
    <path d="M244.3,194.6s11.45,2.3,13.48,1.32-6.74-9.05-6.74-9.05l-6.28,3.84-.45,3.89h0Z"/>
  </g>
  <g id="Capa_12" data-name="Capa 12">
    <path class="cls-1" d="M284.33,178.61c-14.56,22.67-21.22,17.69-21.22,17.69,0,0,4.18,1.44,6.75.61,2.58-.83,15.72-13.34,15.52-16.94s-1.05-1.36-1.05-1.36h0Z"/>
    <path class="cls-1" d="M276.73,188.94s-.15.08-.4.23c-2.03,1.15-11.09,6.31-11.57,7.14-.55.93,4.67,0,4.67,0l7.97-6.92-.7-.58"/>
  </g>
</svg>