<?xml version="1.0" encoding="UTF-8"?>
<svg id="Capa_1" data-name="Capa 1" xmlns="http://www.w3.org/2000/svg" viewBox="0 0 566.93 566.93">
  <defs>
    <style>
      .cls-1 {
        fill: #fff;
      }

      .cls-2 {
        fill: none;
      }
    </style>
  </defs>
  <g id="Capa_1-2" data-name="Capa 1">
    <g>
      <path d="M137.68,476.3V83.06h291.89v393.24H137.68ZM150.28,94.28v6.62c0,80.99,0,161.98-.02,242.96,0,2.46.52,6.6-.51,7.06,0,0-.33,3.57-.99,4.85-1,1.94,1.44,4.27,1.44,6.41.11,32.49.09,64.97.1,97.46v5.94c89.2,0,177.63.71,266.73.71V94.28H150.28Z"/>
      <path class="cls-1" d="M148.31,94.45h266.76v371.31H148.33v-5.94c0-32.38,0-64.77-.1-97.15v-.31c0-2.13.07-180.29.08-261.28v-6.62h0ZM217.4,326.79c4.93-2.91,5.02-6.44,5.02-9.9.01-13.83-.2-27.65,0-41.48.04-2.98.93-6.23,2.35-8.86,4.83-8.93,10.28-17.51,15.09-26.45,4.24-7.88,4.79-16.34,2.63-25.79-9.01,12.08-18.3,23.01-19.71,38.2-.61-7.98-.72-15.77-.51-23.55.04-1.4,1.2-2.89,2.12-4.12,7.57-10.04,14.08-20.33,15.2-33.53.69-8.16,3.4-16.15,5.24-24.21.26-1.13.68-2.22,1.03-3.33-.4-.23-.8-.46-1.2-.69-2.84,3.81-6.59,7.26-8.32,11.52-2.98,7.32-4.69,15.15-6.96,22.75-2.04,6.85-4.11,13.69-6.16,20.54-.55-.13-1.1-.27-1.65-.4-.08-1.09-.38-2.2-.22-3.25,1.7-11.47,2.89-23.06,5.38-34.36,2.19-9.94,2.07-19.08-3.49-27.83-5.42-8.54-7.84-17.59-4.48-27.58.03-.08-.41-.31-.94-.7-9.37,14.9-14.64,30.57-7.5,47.73,6.41,15.39,4.26,31.41,5.79,47.29-6.42-14.25-12.7-28.21-19.58-43.49-.95,3.65-2.07,6.22-2.23,8.86-.59,9.39,1.69,18.17,6.63,26.2,4.53,7.38,9.14,14.7,13.65,22.09.77,1.26,1.75,2.68,1.77,4.05.16,9.04.08,18.08.08,27.11-.49.09-.97.17-1.46.26-1.49-5.34-3.87-10.61-4.31-16.03-1.11-13.76-12.09-20.66-19.52-30.24-.69,2.08-.95,3.99-.96,5.91-.06,11.55,4.04,21.86,9.9,31.51,4.49,7.4,9.59,14.42,14.08,21.82,1.38,2.27,2.27,5.19,2.33,7.84.25,11.49.07,22.98.13,34.48.01,2.2.42,4.4.75,7.63h.03ZM280.35,326.36c4.74-1.91,4.92-5.2,4.96-8.28.11-8.33.66-16.73-.19-24.98-1.63-15.82,2.16-29.63,11.7-42.43,4.07-5.47,6.68-12.28,8.85-18.84,1.75-5.28,1.53-11.09-.16-17.6-4.78,6.77-9.42,12.14-12.64,18.25-3.26,6.18-5.12,13.11-7.78,20.22,0-3.94.15-7.55-.03-11.14-.42-8.17.27-15.33,6.24-22.37,7.31-8.62,11.14-19.25,11.61-31.23.33-8.22,3.52-16.32,5.43-24.48-7.67,6.22-11.72,14.76-14.06,24.35-1.97,8.07-3.93,16.15-6.09,24.17-.55,2.05-1.84,3.91-3.37,7.04-1.68-14.29,1.2-26.42,4.75-38.42,3.09-10.44,2.57-20.28-3.39-29.73-4.76-7.56-7.4-15.67-4.37-24.71.2-.61.14-1.31.24-2.47-10.01,11.73-14.91,30.91-9.5,44.58,6.54,16.54,5.56,33.58,6.41,50.19-6.15-13.78-12.43-27.85-18.72-41.93-1.69,2.79-2.78,5.75-2.89,8.75-.35,9.58,2.28,18.41,7.41,26.53,4.36,6.9,8.64,13.84,12.89,20.81.76,1.25,1.64,2.71,1.66,4.09.15,8.92.08,17.84.08,26.76-.43.1-.87.19-1.3.29-1.52-5.15-4.02-10.23-4.37-15.46-.94-14.03-12.09-21.08-19.35-31.53-.59,1.23-.91,1.63-.96,2.06-.15,1.32-.25,2.65-.28,3.98-.27,10.68,3.14,20.38,8.46,29.38,4.83,8.16,10.42,15.88,15.28,24.02,1.52,2.54,2.45,5.82,2.52,8.78.3,11.66.11,23.33.19,34.99.01,1.9.44,3.8.76,6.37h.01ZM348.84,217.98c-.63-.11-1.26-.21-1.89-.32-.13-1.75-.6-3.56-.34-5.24,1.67-10.66,3.13-21.37,5.41-31.9,2.03-9.39,3-18.38-2.27-27.07-5.39-8.9-9.46-18.11-5.7-28.99-9.21,13.1-14.85,27.54-9.34,42.95,5.66,15.85,6.11,31.91,6.6,48.19.03,1.12-.14,2.24-.16,2.66-6.09-13.66-12.34-27.67-19.29-43.26-.98,4.51-2.25,7.78-2.28,11.05-.07,8.46,1.96,16.53,6.41,23.81,3.47,5.68,6.82,11.5,10.82,16.8,8.66,11.47,3.9,24.34,4.34,36.91-4.17-17.49-8.95-34.47-25.26-45.82,0,2.89-.12,5.52.02,8.14.55,10.59,4.32,20.14,9.8,29.04,4.54,7.37,9.53,14.48,13.97,21.9,1.37,2.28,2.2,5.23,2.26,7.89.25,11.83.09,23.66.16,35.49.01,1.85.43,3.7.73,6.11,4.78-1.79,4.82-5.29,4.83-8.48.05-12.33.2-24.68-.31-36.99-.29-6.98,1.42-12.86,5.15-18.71,5.1-7.98,9.85-16.25,13.98-24.76,3.43-7.08,4-14.78,1.58-23.17-3.44,4.86-6.57,8.93-9.3,13.25-2.65,4.2-5.39,8.46-7.18,13.05-1.76,4.53-2.38,9.51-3.5,14.3-.68-8.3-.8-16.47-.58-24.62.05-1.73.99-3.76,2.16-5.08,6.74-7.64,12.26-16.28,14.11-26.1,2.23-11.82,1.88-24.13,7.56-35.41-2.46,1.6-4.39,3.38-6.01,5.4-6.15,7.67-8.21,16.86-10.1,26.26-1.54,7.69-4.22,15.15-6.4,22.71h.02ZM159.74,420.38c14.01-9.72,26.23-5.6,38.21,1.67.57.34,1.18.61,1.78.91,9.01,4.67,18.22,4.98,27.43.79,4.08-1.85,8.08-3.99,11.79-6.49,6.22-4.19,12.05-4.19,17.9.5.52.42,1.12.72,1.66,1.11,13.74,9.93,27.94,10.64,41.69.7,8.7-6.29,16.43-7.27,24.57.2.12.11.28.18.42.27,12.26,8.09,24.8,8.8,37.68,1.49,2.31-1.31,4.68-2.57,7.11-3.64,10-4.43,19.95-4.81,29.77.62.73.4,1.55.63,3.03,1.21-8.47-11.31-18.12-13.73-31.98-8.25-4.94,1.95-9.59,4.62-14.42,6.87-7.74,3.61-15.51,3.51-23.12-.31-3.26-1.63-6.45-3.51-9.38-5.67-7.25-5.33-14.42-5.22-21.78-.38-2.22,1.46-4.53,2.8-6.81,4.18-11.41,6.89-22.46,5.96-33.2-1.56-1.5-1.05-3-2.11-4.53-3.11-5.83-3.82-11.86-4-17.99-.82-2.36,1.22-4.65,2.61-6.89,4.05-11.94,7.68-23.73,8.17-36.07.46-4.67-2.92-10.31-4.7-15.74-5.88-8.6-1.87-15.46,1.83-21.11,11.09h-.02ZM160.63,402.9c11.85-8.02,23.28-5.8,34.29,1.05,13.13,8.16,26.36,8.53,38.84-.44,10.01-7.2,18.33-7.13,28.24.49,10.74,8.26,22.92,7.97,34.71,1.04,2.73-1.6,5.5-3.15,8.08-4.97,5.28-3.73,10.46-3.99,15.62.08,14.94,11.8,30.45,13.07,46.66,2.67.84-.54,1.77-.92,2.68-1.35,9.76-4.55,19.5-5.16,29.25.05.95.51,2.01.81,3.88,1.56-5.51-7.62-11.96-12.09-20.47-10.49-7.06,1.33-14.32,3.41-20.59,6.82-12.99,7.07-24.79,6.09-36.39-2.51-1.07-.79-2.17-1.54-3.27-2.3-5.82-4.06-11.81-4.05-17.86-.64-3.04,1.72-5.96,3.65-8.94,5.48-10.98,6.72-21.74,6.3-32.29-.99-1.64-1.14-3.31-2.24-4.94-3.4-6.25-4.46-12.67-4.49-19.22-.73-2.89,1.66-5.71,3.43-8.57,5.13-10.68,6.38-21.25,6.55-32.09.05-4.37-2.62-9.18-4.84-14.09-6.2-10.51-2.91-17.94.2-23.54,9.59h.01ZM161.14,383.97c5.12-1.15,10.8-3.81,16.17-3.28,6.37.63,13.01,3.1,18.57,6.39,12.37,7.34,24.52,7.97,36.09-.28,10.7-7.63,19.92-8.04,30.7.18,10.49,8,22.35,7.6,33.75.68,1.85-1.12,3.79-2.13,5.51-3.44,7.25-5.51,14.18-5.25,21.43.29,13.24,10.11,26.94,10.82,41.28,1.83,11.91-7.47,24.33-8.5,36.84-1.06.15.09.5-.17.95-.33-5.23-7.07-11.92-11.85-20.82-10.01-7.35,1.52-14.8,3.99-21.36,7.58-11.43,6.25-21.88,5.7-32.36-1.49-1.65-1.13-3.3-2.26-4.96-3.37-6.47-4.31-13.1-4.32-19.8-.6-1.89,1.05-3.72,2.22-5.49,3.47-12.32,8.64-24.44,8.44-36.41-.7-.92-.71-1.92-1.33-2.9-1.96-6.81-4.39-13.75-4.5-20.78-.59-3.63,2.03-7.18,4.2-10.82,6.23-8.95,4.99-17.74,4.62-26.56-.57-4.14-2.44-8.43-4.83-12.94-6.41-12.09-4.24-19.98-1.68-26.08,7.44h-.01ZM160.51,369.3c13.23-8.53,25-3.62,36.57,3.38.43.26.87.49,1.32.72,9.09,4.69,18.44,5.61,27.9,1.36,4.39-1.97,8.63-4.34,12.7-6.9,6.08-3.83,11.83-3.83,17.64.42,2.15,1.57,4.4,3.01,6.69,4.36,10.13,5.99,20.48,6.26,30.97.99,1.78-.9,3.69-1.71,5.2-2.97,8.75-7.32,17.29-7.53,25.98.14,1.7,1.51,3.97,2.43,6.07,3.43,8.25,3.94,16.69,4.37,25.14.77,3.82-1.62,7.48-3.63,11.18-5.53,10.71-5.5,21.49-6.77,32.44-.67.66.36,1.4.58,3.03,1.23-6-8.44-13.2-12.59-22.38-10.44-7.02,1.65-14.03,4.23-20.37,7.65-11.71,6.31-22.9,6.24-33.22-1.82-10.15-7.93-19.59-7.89-29.48-.21-.39.3-.86.51-1.28.78-11.99,7.9-23.72,7.56-35.2-1.1-1.06-.8-2.21-1.49-3.3-2.25-6.07-4.19-12.42-4.42-18.88-1.11-3.4,1.74-6.65,3.79-9.96,5.71-10.27,5.93-20.42,6.02-30.77-.05-4.41-2.59-9.15-4.83-14.01-6.4-9.69-3.13-18.07-1.14-23.97,8.5h-.01ZM261.89,345.08c2.77,8.64,9.55,13.25,18.04,12.91,7.81-.32,14.46-5.38,16.15-12.85-11.37,10.79-22.62,10.77-34.18-.06h-.01ZM327.3,345.6c2.72,8.43,10.13,13.07,18.76,12.33,7.53-.65,13.98-5.85,14.84-11.98-14.95,9.85-18.44,9.85-33.6-.35h0ZM230.72,346.21c-11.19,9.86-22.41,10.36-33.92.42,3.41,7.46,8.96,11.41,16.88,11.3,8.05-.11,13.81-4.07,17.04-11.73h0ZM359.08,337.37c-10.14,8.36-20.07,8.21-30.03-.66,2.75,7.31,7.87,10.89,14.95,11.01,7.08.12,12.26-3.36,15.08-10.35ZM294.5,336.89c-14.53,8.93-17.86,8.93-30.06.39,2.01,6.1,6.89,9.9,13.44,10.47,6.68.57,12.76-3.19,16.62-10.86h0ZM198.58,337.83c4.26,7.34,10.38,10.68,16.85,9.75,6.36-.91,10.93-4.44,12.22-9.44-12.82,8.85-14.98,8.86-29.06-.31h-.01ZM333.84,331.05c5.84,8.68,15.55,8.63,21.04-.3-7.16,4.24-14.01,4.47-21.04.3ZM268.07,330.47c6.53,9.08,15.62,9.07,21.96.16-7.41,4.46-14.13,4.61-21.96-.16ZM203.58,331.62c5.7,7.55,13.81,7.74,20.3-.29-7.32,3.76-13.79,3.86-20.3.29Z"/>
      <path d="M217.62,326.79c-.33-3.23-.74-5.43-.75-7.63-.06-11.49.11-22.99-.13-34.48-.06-2.65-.95-5.57-2.33-7.84-4.49-7.39-9.59-14.42-14.08-21.82-5.86-9.65-9.96-19.96-9.9-31.51.01-1.91.26-3.83.96-5.91,7.43,9.58,18.41,16.48,19.52,30.24.44,5.42,2.81,10.69,4.31,16.03.49-.09.97-.17,1.46-.26,0-9.04.08-18.08-.08-27.11-.02-1.36-1-2.79-1.77-4.05-4.52-7.38-9.12-14.71-13.65-22.09-4.94-8.04-7.21-16.81-6.63-26.2.16-2.63,1.28-5.21,2.23-8.86,6.88,15.27,13.16,29.23,19.58,43.49-1.54-15.88.62-31.9-5.79-47.29-7.15-17.16-1.88-32.82,7.5-47.73.53.38.97.62.94.7-3.36,9.99-.94,19.04,4.48,27.58,5.56,8.75,5.68,17.89,3.49,27.83-2.49,11.3-3.68,22.89-5.38,34.36-.16,1.05.14,2.17.22,3.25.55.13,1.1.27,1.65.4,2.06-6.85,4.12-13.69,6.16-20.54,2.26-7.61,3.98-15.44,6.96-22.75,1.74-4.26,5.48-7.71,8.32-11.52.4.23.8.46,1.2.69-.35,1.11-.77,2.2-1.03,3.33-1.84,8.06-4.55,16.05-5.24,24.21-1.12,13.2-7.63,23.49-15.2,33.53-.93,1.23-2.09,2.73-2.12,4.12-.21,7.78-.1,15.57.51,23.55,1.41-15.19,10.7-26.11,19.71-38.2,2.16,9.45,1.61,17.91-2.63,25.79-4.8,8.94-10.26,17.53-15.09,26.45-1.42,2.63-2.31,5.88-2.35,8.86-.2,13.82,0,27.65,0,41.48,0,3.46-.09,6.99-5.02,9.9h-.03Z"/>
      <path d="M280.57,326.36c-.32-2.57-.74-4.47-.76-6.37-.08-11.66.11-23.33-.19-34.99-.08-2.97-1-6.24-2.52-8.78-4.87-8.14-10.45-15.86-15.28-24.02-5.32-8.99-8.73-18.7-8.46-29.38.03-1.33.13-2.66.28-3.98.05-.43.37-.83.96-2.06,7.26,10.45,18.41,17.49,19.35,31.53.35,5.23,2.85,10.31,4.37,15.46.43-.1.87-.19,1.3-.29,0-8.92.07-17.84-.08-26.76-.02-1.38-.9-2.83-1.66-4.09-4.24-6.97-8.53-13.91-12.89-20.81-5.12-8.12-7.76-16.95-7.41-26.53.11-3,1.2-5.96,2.89-8.75,6.28,14.07,12.56,28.15,18.72,41.93-.85-16.61.13-33.65-6.41-50.19-5.4-13.67-.51-32.85,9.5-44.58-.11,1.16-.04,1.86-.24,2.47-3.03,9.03-.4,17.15,4.37,24.71,5.96,9.45,6.47,19.29,3.39,29.73-3.55,12-6.43,24.13-4.75,38.42,1.53-3.13,2.82-4.99,3.37-7.04,2.16-8.02,4.12-16.1,6.09-24.17,2.34-9.59,6.39-18.12,14.06-24.35-1.91,8.16-5.1,16.27-5.43,24.48-.47,11.98-4.31,22.61-11.61,31.23-5.97,7.04-6.66,14.2-6.24,22.37.19,3.59.03,7.19.03,11.14,2.66-7.11,4.52-14.03,7.78-20.22,3.22-6.11,7.86-11.48,12.64-18.25,1.69,6.52,1.91,12.32.16,17.6-2.18,6.56-4.78,13.37-8.85,18.84-9.54,12.81-13.33,26.61-11.7,42.43.85,8.25.29,16.65.19,24.98-.04,3.09-.22,6.37-4.96,8.28h-.01Z"/>
      <path d="M349.06,217.98c2.18-7.56,4.86-15.02,6.4-22.71,1.89-9.41,3.95-18.59,10.1-26.26,1.62-2.03,3.55-3.81,6.01-5.4-5.69,11.28-5.33,23.59-7.56,35.41-1.85,9.82-7.37,18.46-14.11,26.1-1.17,1.33-2.11,3.35-2.16,5.08-.22,8.16-.1,16.32.58,24.62,1.12-4.78,1.74-9.76,3.5-14.3,1.78-4.59,4.52-8.85,7.18-13.05,2.73-4.32,5.86-8.39,9.3-13.25,2.42,8.39,1.85,16.09-1.58,23.17-4.13,8.52-8.88,16.78-13.98,24.76-3.74,5.85-5.44,11.73-5.15,18.71.51,12.31.36,24.66.31,36.99-.01,3.18-.06,6.69-4.83,8.48-.3-2.41-.72-4.26-.73-6.11-.07-11.83.08-23.67-.16-35.49-.06-2.66-.89-5.61-2.26-7.89-4.45-7.43-9.43-14.53-13.97-21.9-5.48-8.9-9.25-18.45-9.8-29.04-.14-2.62-.02-5.25-.02-8.14,16.31,11.35,21.09,28.33,25.26,45.82-.44-12.56,4.31-25.44-4.34-36.91-4-5.3-7.34-11.11-10.82-16.8-4.45-7.29-6.49-15.35-6.41-23.81.03-3.28,1.31-6.54,2.28-11.05,6.95,15.59,13.2,29.6,19.29,43.26.03-.42.2-1.54.16-2.66-.5-16.29-.94-32.34-6.6-48.19-5.51-15.42.13-29.85,9.34-42.95-3.76,10.88.3,20.1,5.7,28.99,5.27,8.69,4.3,17.68,2.27,27.07-2.28,10.53-3.73,21.24-5.41,31.9-.27,1.69.21,3.49.34,5.24.63.11,1.26.21,1.89.32h-.02Z"/>
      <path d="M159.96,420.38c5.65-9.25,12.51-12.96,21.11-11.09,5.44,1.18,11.07,2.97,15.74,5.88,12.35,7.71,24.13,7.22,36.07-.46,2.24-1.44,4.52-2.83,6.89-4.05,6.13-3.17,12.16-3,17.99.82,1.53,1,3.03,2.06,4.53,3.11,10.74,7.53,21.79,8.45,33.2,1.56,2.28-1.38,4.58-2.72,6.81-4.18,7.36-4.84,14.53-4.95,21.78.38,2.93,2.16,6.12,4.03,9.38,5.67,7.6,3.82,15.38,3.92,23.12.31,4.82-2.25,9.48-4.92,14.42-6.87,13.86-5.48,23.51-3.06,31.98,8.25-1.48-.58-2.3-.81-3.03-1.21-9.82-5.43-19.77-5.05-29.77-.62-2.43,1.08-4.79,2.33-7.11,3.64-12.88,7.3-25.42,6.59-37.68-1.49-.14-.09-.3-.16-.42-.27-8.14-7.47-15.86-6.49-24.57-.2-13.75,9.94-27.95,9.23-41.69-.7-.54-.39-1.14-.69-1.66-1.11-5.85-4.69-11.68-4.69-17.9-.5-3.71,2.5-7.72,4.64-11.79,6.49-9.21,4.19-18.41,3.87-27.43-.79-.59-.31-1.21-.57-1.78-.91-11.97-7.27-24.2-11.39-38.21-1.67h.02Z"/>
      <path d="M160.84,402.9c5.59-9.4,13.02-12.5,23.54-9.59,4.9,1.36,9.71,3.57,14.09,6.2,10.83,6.5,21.4,6.33,32.09-.05,2.86-1.71,5.68-3.48,8.57-5.13,6.54-3.76,12.97-3.73,19.22.73,1.63,1.16,3.29,2.27,4.94,3.4,10.55,7.29,21.31,7.71,32.29.99,2.98-1.83,5.9-3.77,8.94-5.48,6.05-3.41,12.05-3.42,17.86.64,1.09.76,2.2,1.51,3.27,2.3,11.6,8.6,23.4,9.57,36.39,2.51,6.27-3.41,13.52-5.5,20.59-6.82,8.51-1.6,14.96,2.87,20.47,10.49-1.88-.74-2.93-1.05-3.88-1.56-9.75-5.21-19.49-4.6-29.25-.05-.9.42-1.84.81-2.68,1.35-16.2,10.4-31.72,9.14-46.66-2.67-5.16-4.07-10.34-3.81-15.62-.08-2.58,1.82-5.35,3.37-8.08,4.97-11.79,6.93-23.96,7.22-34.71-1.04-9.91-7.62-18.23-7.69-28.24-.49-12.47,8.97-25.71,8.6-38.84.44-11.01-6.85-22.44-9.07-34.29-1.05h-.01Z"/>
      <path d="M161.36,383.97c6.1-9.11,13.99-11.67,26.08-7.44,4.51,1.58,8.8,3.97,12.94,6.41,8.82,5.2,17.6,5.56,26.56.57,3.63-2.03,7.18-4.2,10.82-6.23,7.03-3.92,13.97-3.8,20.78.59.98.63,1.97,1.25,2.9,1.96,11.97,9.14,24.09,9.34,36.41.7,1.77-1.24,3.6-2.42,5.49-3.47,6.7-3.72,13.33-3.71,19.8.6,1.66,1.11,3.31,2.24,4.96,3.37,10.48,7.19,20.93,7.75,32.36,1.49,6.56-3.59,14.01-6.06,21.36-7.58,8.9-1.84,15.59,2.93,20.82,10.01-.45.16-.8.42-.95.33-12.51-7.43-24.93-6.41-36.84,1.06-14.34,8.99-28.04,8.28-41.28-1.83-7.25-5.53-14.18-5.8-21.43-.29-1.72,1.3-3.66,2.32-5.51,3.44-11.4,6.91-23.26,7.31-33.75-.68-10.78-8.22-19.99-7.81-30.7-.18-11.58,8.25-23.72,7.62-36.09.28-5.56-3.3-12.2-5.76-18.57-6.39-5.37-.53-11.06,2.13-16.17,3.28h.01Z"/>
      <path d="M160.73,369.3c5.91-9.64,14.29-11.63,23.97-8.5,4.86,1.57,9.6,3.81,14.01,6.4,10.35,6.07,20.5,5.98,30.77.05,3.32-1.91,6.56-3.97,9.96-5.71,6.46-3.31,12.81-3.07,18.88,1.11,1.1.76,2.24,1.45,3.3,2.25,11.48,8.66,23.21,9,35.2,1.1.42-.27.88-.48,1.28-.78,9.88-7.68,19.33-7.72,29.48.21,10.31,8.06,21.51,8.13,33.22,1.82,6.34-3.42,13.35-6,20.37-7.65,9.18-2.15,16.39,2,22.38,10.44-1.64-.66-2.38-.87-3.03-1.23-10.95-6.09-21.73-4.83-32.44.67-3.7,1.9-7.36,3.91-11.18,5.53-8.45,3.6-16.89,3.17-25.14-.77-2.1-1-4.36-1.92-6.07-3.43-8.69-7.68-17.23-7.46-25.98-.14-1.51,1.26-3.41,2.07-5.2,2.97-10.49,5.27-20.84,4.99-30.97-.99-2.29-1.35-4.55-2.79-6.69-4.36-5.81-4.25-11.56-4.25-17.64-.42-4.07,2.56-8.32,4.93-12.7,6.9-9.45,4.25-18.8,3.33-27.9-1.36-.44-.23-.89-.46-1.32-.72-11.57-7-23.34-11.91-36.57-3.38h.01Z"/>
      <path d="M262.11,345.08c11.56,10.83,22.82,10.85,34.18.06-1.69,7.46-8.34,12.53-16.15,12.85-8.49.34-15.27-4.26-18.04-12.91h.01Z"/>
      <path d="M327.52,345.6c15.16,10.2,18.65,10.2,33.6.35-.87,6.13-7.32,11.34-14.84,11.98-8.63.74-16.03-3.9-18.76-12.33h0Z"/>
      <path d="M230.94,346.21c-3.23,7.65-8.98,11.62-17.04,11.73-7.92.11-13.47-3.85-16.88-11.3,11.51,9.93,22.72,9.44,33.92-.42h0Z"/>
      <path d="M359.29,337.37c-2.83,6.99-8.01,10.47-15.08,10.35-7.08-.12-12.2-3.7-14.95-11.01,9.95,8.86,19.89,9.01,30.03.66Z"/>
      <path d="M294.72,336.89c-3.86,7.67-9.94,11.43-16.62,10.86-6.55-.56-11.43-4.36-13.44-10.47,12.19,8.53,15.53,8.54,30.06-.39h0Z"/>
      <path d="M198.8,337.83c14.08,9.17,16.24,9.16,29.06.31-1.29,5-5.85,8.53-12.22,9.44-6.47.93-12.59-2.41-16.85-9.75h.01Z"/>
      <path d="M334.06,331.05c7.02,4.17,13.88,3.95,21.04-.3-5.49,8.93-15.19,8.98-21.04.3Z"/>
      <path d="M268.29,330.47c7.82,4.77,14.55,4.61,21.96.16-6.34,8.92-15.43,8.92-21.96-.16Z"/>
      <path d="M203.8,331.62c6.51,3.58,12.98,3.48,20.3-.29-6.49,8.02-14.6,7.84-20.3.29Z"/>
    </g>
    <line class="cls-2" x1="147.98" y1="360.47" x2="147.99" y2="351.09"/>
  </g>
</svg>