<?xml version="1.0" encoding="UTF-8"?>
<svg id="Capa_1" data-name="Capa 1" xmlns="http://www.w3.org/2000/svg" viewBox="0 0 566.93 566.93">
  <defs>
    <style>
      .cls-1 {
        fill: #43ae63;
      }

      .cls-2 {
        fill: #42ad61;
      }
    </style>
  </defs>
  <g id="Capa_1-2" data-name="Capa 1">
    <g>
      <path class="cls-2" d="M368.42,184.7v48.84c0,6.97-1.81,8.9-8.61,9.32-1.33.08-2.65.23-3.97.34-6.37.49-9.46-2.22-9.39-8.59.19-18.76.53-37.51.71-56.27.14-14.94.24-29.88-.74-44.8-.41-6.23-3.2-10.92-9.2-12.94-6.49-2.19-12.84-3.02-18.46,2.75-17.29,17.74-34.84,35.24-52.15,52.97-4.01,4.1-8.45,5.9-14.2,5.81-19.81-.29-39.63-.31-59.44-.36-4.24-.01-7.67-1.46-10.68-4.46-18.12-18.09-36.32-36.1-54.45-54.17-7.28-7.25-15.72-6.95-22.45.92-4.17,4.88-6.03,10.54-6.03,16.96,0,31.06-.08,62.13-.13,93.19,0,1.16-.02,2.33,0,3.49.04,1.9-.07,3.95-2.16,4.58-2.34.7-3.57-1.17-4.65-2.89-4.02-6.42-6.13-13.6-7.92-20.85-4.28-17.35-5.8-34.98-5.3-52.84.27-9.63.17-19.27.17-28.9,0-6.2.88-12.24,3.25-18,9.39-22.77,36.65-28.95,54.76-12.21,17.7,16.36,35.19,32.93,52.66,49.54,3.6,3.42,7.48,5.1,12.49,5.04,14.15-.18,28.31-.19,42.47.01,4.68.07,8.21-1.37,11.5-4.7,15.79-15.97,31.87-31.64,47.6-47.67,10.21-10.42,22.2-15.82,36.46-11.59,14.79,4.38,22.85,15.78,26.8,30.27.93,3.4,1.1,6.86,1.09,10.36-.02,15.62,0,31.23,0,46.85h-.03Z"/>
      <path class="cls-1" d="M273.55,329.18c-7.42,12.1-14.85,24.21-22.27,36.31-6.17,10.05-12.28,20.14-18.52,30.14-6.11,9.8-15.81,9.47-21.45-.67-10.67-19.15-21.31-38.3-31.97-57.45-1.03-1.86-2.1-3.7-3.62-6.36,0,9.05-.11,17.18.03,25.31.18,10.27,1.57,20.58-1.67,30.66-6.2,19.27-24.74,31.93-46.97,32.09-18.71.13-35.08-13.03-41.68-33.56-1.89-5.88-3.01-11.93-3.03-18.1-.08-19.11-.01-38.22-.06-57.33,0-3.47.95-6.31,4.45-7.54,4.71-1.67,8.55,1.52,8.56,7.16.05,18.28.02,36.56.02,54.84,0,7.05,1.12,13.87,3.88,20.4,9.36,22.11,32.87,28.05,51.84,13.1,10.17-8.02,12.59-18.92,12.11-31.12-.76-19.24-1.24-38.49-1.86-57.73-.13-4.08,1.33-7.37,5.35-8.58,4.44-1.33,7.6.65,9.83,4.69,13.91,25.13,27.9,50.22,41.87,75.32,2.57,4.62,5.26,4.64,8.09.05,14.34-23.35,28.66-46.72,43-70.07,3.62-5.89,7.23-7.76,12.09-6.32,4.71,1.4,6.75,5.43,6.54,12.02-.66,20.57-1.32,41.14-1.73,61.72-.18,9.11,3.82,16.7,10.03,23.15,4.53,4.71,10.29,5.97,16.53,4.9,10.85-1.87,20.71-5.99,29.15-13.21,5.6-4.8,8.49-10.43,8.33-18.2-.45-21.59-.23-43.2-.32-64.8-.01-3.38.5-6.33,4.2-7.59,4.89-1.66,8.76,1.54,8.81,7.53.12,14.95.14,29.91.17,44.86.02,7.64-.17,15.29.03,22.93.22,8.14-2.64,15.01-8.19,20.72-13.23,13.63-29.38,20.87-48.48,20.89-8.28.01-15.14-3.84-20.58-9.84-8.59-9.47-13.24-20.51-12.75-33.54.52-13.94.78-27.88,1.14-41.82.04-1.57,0-3.15,0-4.72l-.88-.23h-.02Z"/>
      <path class="cls-2" d="M507.74,179.57c-.21,13.72-4.97,25.55-14.89,35.17-3.62,3.52-7.83,6.11-12.78,7.41-8.06,2.13-15.24-1.36-18.92-8.69-8.43-16.8.67-44.52,17.04-54.54,12.14-7.44,24.11-2.75,28.39,10.82,1.01,3.21,1.3,6.48,1.16,9.83ZM482.65,195.46c2.92-.32,4.9-1.77,5-4.62.11-3.12-1.8-4.91-4.92-4.9-2.97,0-4.54,1.88-4.58,4.71-.04,2.93,1.83,4.38,4.5,4.81Z"/>
      <path class="cls-2" d="M482.75,337.1c-.2,13.72-4.96,25.55-14.87,35.18-3.75,3.65-8.12,6.3-13.25,7.56-7.79,1.92-14.87-1.67-18.45-8.8-8.45-16.81.65-44.51,17-54.56,12.13-7.45,24.11-2.78,28.4,10.78,1.02,3.21,1.32,6.48,1.17,9.83h0ZM462.76,348.27c-.2-2.67-1.62-4.51-4.49-4.78-2.95-.28-4.74,1.36-5.09,4.18-.36,2.9,1.26,4.87,4.06,5.21,3.06.37,4.92-1.4,5.53-4.61h-.01Z"/>
      <path class="cls-2" d="M442.2,217.06c-3.71,2.34-6.83,3.85-10.32,4.45-7.41,1.28-15.21-2.44-18.05-8.61-3.2-6.96-1.46-14.65,4.51-19.83,4.21-3.64,9.11-5.59,14.67-5.03,3.69.37,4.42-1.28,3.84-4.32-.34-1.79-.74-3.57-1.25-5.31-.53-1.82-1.54-3.54-3.5-3.88-2.3-.4-2.9,1.75-3.8,3.26-1.62,2.7-10.02,5.31-12.85,4.01-1.11-.51-1.16-1.5-1.42-2.44-1.22-4.52-1.08-8.92,1.5-12.96,5-7.83,12.11-12.78,21.29-14.23,8.94-1.41,14.18,2.97,15.31,12.63.87,7.41,1.35,14.87,1.91,22.31.69,9.26,1.14,18.55,2.01,27.79.34,3.66-.49,5.76-4.39,6.08-.98.08-1.97.36-2.91.68-3.82,1.32-6.53.83-6.54-4.61h-.01ZM436.38,204.69c-.22-2.61-1.42-4.63-4.45-4.8-3.27-.19-5.1,1.79-5.14,4.78-.04,2.78,1.78,4.79,4.68,4.81,2.81.02,4.61-1.62,4.91-4.79h0Z"/>
      <path class="cls-2" d="M416.23,374.61c-3.71,2.33-6.83,3.84-10.32,4.45-7.4,1.28-15.21-2.43-18.06-8.59-3.21-6.96-1.48-14.66,4.49-19.83,4.21-3.65,9.1-5.6,14.67-5.04,3.67.37,4.44-1.24,3.86-4.3-.34-1.79-.74-3.57-1.25-5.32-.53-1.82-1.53-3.54-3.49-3.9-2.31-.42-2.91,1.73-3.81,3.24-1.63,2.72-9.99,5.32-12.84,4.03-1.11-.5-1.18-1.48-1.43-2.43-1.14-4.33-1.15-8.58,1.25-12.52,5.05-8.27,12.41-13.39,22.01-14.73,8.68-1.21,13.73,3.18,14.83,12.66.88,7.58,1.35,15.2,1.92,22.81.68,9.1,1.13,18.21,1.99,27.29.35,3.64-.45,5.78-4.37,6.09-.98.08-1.97.36-2.91.68-3.79,1.3-6.56.9-6.54-4.61v.02ZM405.7,367.14c2.72-.53,4.73-1.89,4.62-4.91-.11-3.11-1.82-4.99-5.08-4.78-2.99.19-4.56,2.22-4.44,4.98.12,2.78,2,4.44,4.9,4.71Z"/>
      <path class="cls-1" d="M223.84,242.56c4.17,0,8.33.04,12.5-.02,2.36-.04,4.31.61,5.35,2.86,1.04,2.27.1,4.21-1.32,5.96-2.34,2.89-5.42,4.88-8.53,6.83-1.09.68-2.4,1.05-2.89,2.54-2.75,8.39,5.48,20.77,14.13,21.22,2.43.13,4.2-.22,4.46-3.26.27-3.22,2.09-5.41,5.58-4.95,3.61.47,4.13,3.4,4.14,6.38.04,7.91-6.01,13.2-14.18,12.24-3.64-.43-7.65-.95-10.34-3.34-6.46-5.75-11.65-5.87-18.45.21-5.36,4.8-12.55,4.47-19.09.32-4.44-2.82-5.51-6.78-4.83-11.56.34-2.41,1.74-3.97,4.24-4.15,2.18-.16,3.86.73,4.73,2.88.75,1.86.15,4.52,3.2,5,3.24.51,6.29.34,9.02-1.73,4.01-3.05,7.95-14.34,6.8-19.14-.33-1.38-1.44-1.69-2.31-2.38-2.99-2.39-5.99-4.77-8.95-7.19-1.9-1.55-2.41-3.6-1.53-5.82.82-2.06,2.54-2.93,4.78-2.91,4.5.04,9,0,13.49,0h0Z"/>
      <path class="cls-1" d="M251.08,445.83c3.93-4.32,6.69-8.06,10.48-10.81,6.13-4.43,8.9-3.52,10.85,3.71,1.61-.3,2.27-1.79,3.39-2.69,1.85-1.49,3.74-3.04,6.28-2.07,2.48.94,3.27,3.27,3.51,5.62.65,6.3.12,12.59-.51,18.87-.23,2.31-.82,4.63-.72,6.92.18,4.33-2.83,4.3-5.65,4.41-3.39.13-2.41-2.59-2.37-4.32.11-4.31.52-8.6.75-12.91.08-1.48.25-3.59-1.23-3.97-1.69-.44-2.88,1.31-3.65,2.84-2.22,4.46-1.86,9.36-2.46,14.11-.21,1.63.39,3.67-2.03,4.57-4.52,1.67-6.16.58-5.95-4.25.16-3.64.38-7.29.49-10.93.05-1.46.32-3.29-1.45-3.86-2.01-.65-2.94,1.12-3.84,2.48-2.55,3.83-3.57,8.21-4.15,12.66-.49,3.76-2.49,4.92-6.06,4.94-3.14.02-4.45-.95-4.58-4.23-.43-10.6-.86-21.21-1.81-31.78-.55-6.08,3.81-5.01,7.03-5.61,4.23-.79,3.45,2.69,3.61,4.88.26,3.41.07,6.86.07,11.43h0Z"/>
      <path class="cls-1" d="M128.81,442.87c2.52-3.82,4.49-6.83,6.48-9.83,1.22-1.84,2.65-3.38,5.05-3.65,3.66-.4,5.91.26,6.05,4.83.31,10.25.87,20.52,1.86,30.73.65,6.68-4.28,4.78-7.47,5.52-3.47.81-5.31-.68-5.46-4.38-.12-2.9,0-5.87-1.08-8.8-3.63,4.68-6.52,5.03-8.66,1.06-1.65,2.55-1.78,5.39-2.27,8.04-1,5.52-5.16,4.72-8.89,4.6-4.08-.12-2.94-3.4-2.85-5.61.43-10.75,1.08-21.5,1.59-32.25.1-2.12.77-3.8,3.14-3.41,3.11.51,7.27-2.04,9.08,2.61,1.23,3.15,2.11,6.44,3.42,10.53h.01Z"/>
      <path class="cls-1" d="M291.42,243.11c-.13,4.75-1.36,11.52-6.61,16.86-5.01,5.11-11.31,4.88-16.08-.49-7.8-8.77-8.03-28.24-.44-37.25,5.42-6.43,13.18-6.21,18.11.64,3.82,5.32,5.12,11.42,5.03,20.24h-.01Z"/>
      <path class="cls-2" d="M184.17,243.23c-.1,3.69-1.28,9.49-4.77,14.59-5.24,7.65-13.34,7.79-18.95.4-6.88-9.06-6.73-26.59.31-35.66,5.03-6.48,12.36-6.63,17.76-.35,3.57,4.14,5.68,11.1,5.65,21.02h0Z"/>
      <path class="cls-1" d="M138.2,290.2c-28.96-2.71-57.34,2.31-85.81,6.2-.82.11-1.66.16-2.49.24-3.27.31-6.2-.08-6.63-4.11-.44-4.17,2.33-5.4,5.82-5.87,5.93-.81,11.84-1.74,17.77-2.52,19.79-2.62,39.6-5.08,59.6-5.07,4.48,0,9,.19,13.33,1.56,2.83.9,3.93,3.06,3.42,5.83-.49,2.63-2.49,3.73-5.02,3.75h.01Z"/>
      <path class="cls-1" d="M48.34,251.85c29.2,2.94,57.25,4.6,84.91,9.72,2.47.46,4.96,1,6.87,2.68,1.88,1.65,2.71,3.77,1.37,6.23-1.27,2.32-3.21,3.43-5.79,2.54-12.55-4.3-25.72-4.85-38.72-6.32-15.35-1.73-30.76-2.95-46.14-4.45-1.95-.19-4.04-.05-5.74-1.34-1.99-1.52-2.38-3.63-1.59-5.81,1.01-2.78,3.38-3.38,4.81-3.26h.02Z"/>
      <path class="cls-1" d="M401.39,257.93c-.11,2.28-1.84,4.27-5.01,3.81-14.45-2.08-28.4,1.48-42.44,3.67-13.79,2.15-27.49,4.83-41.21,7.43-3.49.66-6.54.66-7.46-3.4-.99-4.37,2-5.84,5.62-6.53,24.32-4.61,48.59-9.54,73.3-11.79,4.14-.38,8.31-.7,12.4.43,2.77.76,4.87,2.16,4.8,6.39h0Z"/>
      <path class="cls-1" d="M329.31,280.01c19.91,1.25,39.85,2.2,59.67,4.58,3.14.38,6.29.71,9.22,1.97s3.79,3.73,2.98,6.58c-.82,2.88-3.19,3.82-5.92,3.1-13.46-3.56-27.33-3.48-41.05-4.57-14.08-1.12-28.21-1.68-42.32-2.44-3.88-.21-7.28-1.1-6.69-5.91.56-4.55,4.2-4.38,7.67-4.18,5.48.32,10.96.58,16.43.87h0Z"/>
      <path class="cls-2" d="M191.36,460.73c.03-8.99,1.98-17.36,8.16-24.29,4.4-4.93,10.57-7.07,15.11-4.89,5.47,2.64,6.87,7.56,6.89,13.26.05,9.21-3.32,16.75-10.32,22.71-6.25,5.33-16.27,5.36-18.66-4.99-.18-.76-.22-1.68-1.23-1.95l.04.14h0ZM206.86,449.04c-1.83-.07-2.84.99-2.95,2.61-.12,1.66.87,2.85,2.62,2.93,1.72.08,2.77-.86,2.88-2.63.12-1.8-.81-2.73-2.55-2.91h0Z"/>
      <path class="cls-1" d="M345.45,444.76c.15,8.54-2.68,15.29-8.13,20.81-4.11,4.16-8.94,7.25-15.12,4.53-5.82-2.56-6.52-8.31-6.52-13.45,0-7.02,2.28-13.65,6.94-19.23,4.65-5.57,10.58-7.89,15.69-6.06,4.57,1.64,7.19,6.79,7.15,13.4h-.01ZM333.39,451.31c-.1-1.38-1.06-2.28-2.82-2.25-1.82.03-2.7,1.19-2.69,2.83.02,1.71,1.12,2.76,2.85,2.7,1.72-.06,2.63-1.12,2.66-3.27h0Z"/>
      <path class="cls-1" d="M313.08,452.57c.34,4.46.76,8.92,1.01,13.38.17,3.05-5.54,6.65-6.97,4.45-2.13-3.27-3.56-1.13-5.47-.63-4.07,1.06-8.09.82-11.18-2.28-2.81-2.82-3.38-6.52-1.85-10.17,1.81-4.33,5.37-7.04,10.03-7.02,4.07.02,4.49-1.62,3.59-4.78-.37-1.29-.76-2.72-2.14-3.17-1.77-.58-2.04,1.19-2.79,2.18-1.94,2.53-5.07,2.33-7.26,1.65-2.04-.63-1.77-3.68-1.38-5.79,1.24-6.69,10.92-13.07,17.65-11.66,3.99.84,5.05,4.2,5.5,7.48.74,5.41.98,10.89,1.43,16.34-.05,0-.09,0-.14.01h-.03ZM302.26,460.27c-.08-1.77-1-2.83-2.73-2.91-1.82-.08-2.78,1.15-2.84,2.77-.06,1.66.95,2.83,2.72,2.87,1.78.04,2.66-1.04,2.85-2.73h0Z"/>
      <path class="cls-1" d="M191.36,460.73l-.04-.14c-.68,1.27-.19,2.6-.27,3.89-.11,1.81,1.35,4.62-1.38,5.06-2.02.32-4.79,3.51-6.68-.69-.73-1.62-2.03,0-2.93.38-4.56,1.84-8.94,1.64-12.55-1.75-2.74-2.57-3.32-6.17-2.03-9.69,1.71-4.62,5.35-7.02,10.19-7.61,3.98-.49,5.01-2.46,3.08-6.04-1.07-1.98-2.5-3.09-3.89-.44-1.85,3.52-5.77,3.5-7.71,2.43-2.79-1.53-1.93-5.25-.66-8.08,1.26-2.8,3.43-4.83,5.98-6.51,9.61-6.35,15.93-3.24,16.86,8.1.58,7.03.18,14.17,2.01,21.08h.02ZM176.46,457.32c-1.8.2-2.78,1.32-2.73,2.96.05,1.64,1.08,2.79,2.87,2.73,1.77-.06,2.69-1.17,2.67-2.9-.03-1.78-1.15-2.61-2.81-2.79Z"/>
      <path class="cls-1" d="M395.85,176.89c11.88.54,11.79.53,10.25,11.65-1.39,10.01-2.76,20.03-3.75,30.08-.42,4.28-3.01,4.09-5.92,3.98-2.83-.11-6.3.97-6.37-3.9-.19-13.09-.73-26.18-.69-39.27.01-5.55,4.71-1.24,6.5-2.55h-.02Z"/>
      <path class="cls-1" d="M529.2,178.38c0,5.79-.11,11.59.05,17.38.08,2.87-.95,3.85-3.8,3.52-3.29-.39-6.62-.51-9.94-.63-3.32-.12-4.81-1.58-4.29-5.01,1.74-11.46,3.33-22.94,5.17-34.38.61-3.78,2.79-6.56,7.08-6.21,4.17.34,4.73,3.69,4.79,6.95.12,6.12.03,12.25.03,18.38h.92-.01Z"/>
      <path class="cls-1" d="M503.21,335.98c0,5.79-.11,11.59.05,17.38.08,2.92-1.03,3.8-3.85,3.47-3.29-.39-6.62-.51-9.94-.63-3.36-.12-4.76-1.67-4.24-5.05,1.71-11.29,3.29-22.61,5.07-33.89.62-3.96,2.66-7.04,7.22-6.64,4.48.4,4.71,4.14,4.8,7.48.16,5.96.05,11.92.05,17.89h.85,0Z"/>
      <path class="cls-1" d="M399.08,173.44c-7.1-.12-12.66-4.85-12.72-10.81-.06-5.54,4.88-9.78,11.15-9.58,6.96.22,12.53,5.19,12.47,11.1-.06,5.36-4.79,9.4-10.9,9.29Z"/>
      <path class="cls-1" d="M518.99,202.65c7.47-.03,13.17,4.73,13,10.85-.15,5.32-4.44,9.15-10.37,9.27-7.42.15-13.32-4.87-13.23-11.25.07-5.24,4.39-8.85,10.6-8.87Z"/>
      <path class="cls-1" d="M495.56,380.33c-7.28.1-12.88-4.51-13.14-10.83-.22-5.2,4.09-9.14,10.17-9.29,7.51-.19,13.25,4.28,13.42,10.43.15,5.47-4.31,9.6-10.45,9.69Z"/>
      <path class="cls-1" d="M151.79,456.62c0-2.48.05-4.97,0-7.45-.15-6.15-.19-5.89,6.1-5.6,4.15.19,4.91,1.82,4.25,5.57-1.1,6.19-1.95,12.44-2.52,18.7-.29,3.2-2.16,3.19-4.42,3.23-2.5.05-3.06-1.44-3.04-3.53.03-3.64,0-7.28,0-10.92h-.37,0Z"/>
      <path class="cls-1" d="M357.29,444.16c0,2.32-.06,4.63.01,6.95.18,6.11.21,5.89-6.1,5.64-4.04-.16-5.09-1.4-4.19-5.45,1.21-5.47,1.6-11.11,2.42-16.67.4-2.7,1.03-5.61,4.6-5.29,3.17.28,2.91,3.18,3.02,5.41.15,3.13.04,6.28.04,9.42h.2,0Z"/>
      <path class="cls-1" d="M351.46,458.97c4.19.04,7.57,2.83,7.64,6.31.07,3.47-2.76,5.94-6.66,5.78-4.33-.17-7.35-2.89-7.32-6.59.03-3.36,2.54-5.54,6.34-5.5Z"/>
      <path class="cls-1" d="M155.82,429.23c4.57-.16,8.49,2.96,8.27,6.58-.21,3.48-2.28,5.35-5.84,5.51-4.7.21-8.02-2.28-8.07-6.18-.05-4,2.48-5.48,5.64-5.91Z"/>
    </g>
  </g>
</svg>