<?xml version="1.0" encoding="UTF-8"?>
<svg id="Capa_1" data-name="Capa 1" xmlns="http://www.w3.org/2000/svg" viewBox="0 0 566.93 566.93">
  <defs>
    <style>
      .cls-1 {
        stroke: #088ec7;
        stroke-miterlimit: 10;
      }

      .cls-1, .cls-2 {
        fill: #088ec7;
      }

      .cls-3 {
        fill: #57942e;
      }

      .cls-4 {
        fill: #fcfcfc;
      }

      .cls-5 {
        fill: #d42d36;
      }

      .cls-6 {
        fill: #d42b33;
      }

      .cls-7 {
        fill: #fff;
      }

      .cls-8 {
        fill: #8aaf2e;
      }

      .cls-9 {
        fill: #f1f6ed;
      }

      .cls-10 {
        fill: #d42a32;
      }

      .cls-11 {
        fill: #cbd017;
      }

      .cls-12 {
        fill: #8cb134;
      }

      .cls-13 {
        fill: #a0cde7;
      }

      .cls-14 {
        fill: #56932c;
      }
    </style>
  </defs>
  <g id="Capa_1-2" data-name="Capa 1">
    <g>
      <path class="cls-2" d="M435.45,246.69c-.51,8.99-3.32,17.29-6.31,25.53-1.66,4.57-3.81,9.03-4.94,13.73-1.31,5.53-1.17,11.23,4.04,15.06,4.94,3.63,10.49,3.71,15.61.64,6.66-4,13.01-8.56,19.5-12.85,4.02-2.66,7.99-6.52,13.23-3.48,5.12,2.97,4.22,8.38,3.99,13.19-.41,8.63-3.28,16.59-8.09,23.7-5.24,7.74-10.94,9.06-17.91,2.77-8.34-7.52-16.45-4.24-24.5-1.07-6.23,2.46-5.74,8.11-3.46,13.28,2.36,5.39,7.23,8.19,12.33,10.51,4.73,2.15,9.79,3.71,14.16,6.43,8.5,5.29,12.09,16.06,8.17,22.58-3.52,5.84-16.35,8.79-24.03,5.68-3.32-1.35-5.22-3.56-6-7.05-2.31-10.35-9.38-17.23-19.14-18.44-9.36-1.17-16,5.96-21.02,13.56-10.51,15.88-25.3,15.57-36.26-.66-4.06-6.02-2.79-10.33,3.44-13.38,2.91-1.41,6-2.48,9.08-3.46,10.08-3.2,15.18-12.89,11.51-22.66-3.22-8.54-10.59-7.95-17.27-6.37-12.97,3.09-25.65,3.59-38.41-.68-7.03-2.36-12.83-6.29-16.47-12.87-4.16-7.52-3.07-17.41,2.7-21.39,7.15-4.94,13.93-2.56,19.4,2.81,8.13,7.97,17.56,9.14,27.96,6.97,17.15-3.58,31.88-11.64,42.39-25.75,8.22-11.06,12.87-23.21,5.63-37.12-3.79-7.27-.57-13.62,5.45-17.84,6.66-4.69,12.44-1.33,16.98,4.16,5.82,7.07,7.68,15.61,8.24,24.44l.02.02ZM417.12,297.91c-5.76,7.7-14.12,11.8-23.09,16.72,8.58,4.18,17.52,9.08,23.95,4.9,5.2-3.38,1.89-13.25,1.19-20.28-.02-.2-.51-.35-2.05-1.35h0Z"/>
      <path class="cls-6" d="M202.05,320.46c-3.5-.63-7.38-1.13-11.15-2.01-13.56-3.13-19.98-.84-23.58,8.62-4.22,11.06-.41,23.48,9.18,29.11,4.2,2.46,8.89,4.1,13.01,6.66,7.4,4.59,7.7,9.18.9,14.36-3.05,2.32-6.64,4.14-10.26,5.51-15.22,5.78-23.38,4.63-22.76-14.28.31-9.08-2.38-18.21-12.17-21.33-9.49-3.03-16.82,2.66-23.21,9.14-5,5.08-6.78,11.62-8.4,18.34-2.09,8.67-8.5,10.49-14.93,4.22-2.75-2.7-4.92-6.04-7.07-9.28-9.51-14.36-7.79-17.88,9.26-19.18,8.38-.64,23.23-14.91,24.07-23.11,1.11-10.78-10.28-17.91-21.04-13.19-19.03,8.36-23.93,6.02-29.28-14.5-1.21-4.67-1.74-9.57-2.05-14.42-.31-4.96,2.31-8.11,7.38-8.48,4.83-.35,9.51-1.04,11.74,5.53,3.93,11.53,8.69,14.07,19.42,11.74,12.35-2.66,19.87-11.39,18.32-22.52-1.19-8.65-3.83-17.11-5.39-25.73-1.27-7.01-2.4-14.22.8-21.1,2.58-5.51,6.52-9.14,13.09-7.25,6.04,1.74,9.67,6.19,8.77,12.39-3.16,21.92,8.79,36.98,22.54,51.26,5.22,5.41,11.6,9.44,18.73,12.03,6.31,2.31,12.74,2.13,19.2.57,6.94-1.68,10.82-5.55,12.76-12.83,1.64-6.13,7.31-6.74,12.82-4,10.65,5.26,12.72,19.4,3.91,29.21-9.06,10.08-21.49,12.76-34.64,14.55l.02-.02ZM135.2,279.53c-3.81,9.4-4.18,16.35-3.59,23.44.2,2.31.51,4.88,3.46,5,8.13.33,16.33.57,24.19-5.37-9.75-5.76-17.95-11.88-24.05-23.07h0Z"/>
      <path class="cls-14" d="M346.23,360.02c1.05,8.07-2.97,12.83-12.42,13.46-8.19.53-16.02,2.66-22.9,7.42-8.71,6.06-10.76,12.66-5.43,21.72,7.01,11.88,14.89,23.17,30.77,24.07,3.18.18,5.37,2.15,6.02,5.47.61,3.15-.45,5.65-2.77,7.85-9.03,8.56-23.77,8.44-32.29-.43-4.28-4.45-8.28-9.18-12.72-13.48-13.03-12.6-26.72-11.99-38.91,1.5-5.96,6.6-9.77,14.57-13.6,22.43-3.75,7.68-8.93,9.46-16.59,5.67-7.46-3.69-14.42-7.93-17.58-16-2.29-5.86-1.68-10.76,6.19-12.19,16.96-3.07,23.77-15.84,27.35-30.65,2.42-10.06-3.65-19.59-14.28-23.83-6.31-2.52-12.91-4.36-19.5-6.08-7.85-2.05-9.49-7.05-7.38-14.09,1.99-6.7,5.22-12.58,11.58-16.21,4.2-2.4,8.4-2.48,11.53,1.23,14.46,17.15,34.48,18.48,54.29,17.88,18.17-.57,36.08-4.1,51.44-15.47,5.45-4.02,10.49-2.21,13.97,3.5,2.81,4.61,3.32,9.79,3.26,16.25l-.02-.02ZM256.01,387.62c3.18,8.93,8.67,14.26,14.61,19.22,1.84,1.52,3.77,2.29,6.02.35,4.67-4.04,9.16-8.26,11.98-13.81,1.5-2.99,1.52-6.29-3.26-5.2-9.36,2.13-18.6-.08-29.32-.57h-.02Z"/>
      <path class="cls-10" d="M444.92,213.66c-13.32,0-16.33-2.46-18.87-14.48-2.72-12.85-10.51-19.07-20.73-16.53-9.44,2.36-13.48,13.17-9.3,24.83,5.57,15.53,2.23,19.65-14.2,17.45-2.25-.29-4.49-.7-6.72-1.15-10.63-2.15-13.15-6.95-8.2-16.57,7.44-14.5,13.64-29.48,18.03-45.15,5.1-18.13-3.61-28.35-22-26.28-10.39,1.17-15.18-3.83-13.69-14.3,1.45-10.06,12.13-19.87,22.19-20.26,5.06-.2,9.77,1.86,10.73,6.64,1.31,6.45,5.72,8.19,10.67,9.87,24.93,8.46,50.36,12.44,76.74,8.95,5.65-.74,10.49-3.16,15.55-5.33,10.39-4.47,16.25-1.04,17.5,10.26.96,8.67-.64,16.94-6.31,23.85-5.55,6.76-10.1,6.8-14.3-.55-5.96-10.41-15.34-8.36-24.15-7.23-10.33,1.35-18.52,9.75-20.26,19.85-1.58,9.22.16,17.52,8.36,23.35,1.05.74,2.23,1.33,3.36,1.95,5.24,2.91,13.05,4.49,11.25,12.5-1.91,8.5-10.2,7.52-15.67,8.3l.02.02Z"/>
      <path class="cls-10" d="M92.63,147.41c-7.81.23-16.86-1.52-20.79,10.04-1.86,5.45-6.74,5.14-10.98,1.09-8.28-7.89-9.2-25.67-1.6-34.13,2.52-2.81,5.49-5,9.38-2.87,22.49,12.25,45.58,6.62,68.43,2.03,13.69-2.75,26.67-8.22,39.5-13.77,3.03-1.31,5.55-3.07,7.6-5.8,4.96-6.64,10.31-5.53,15.47-.08,4.2,4.43,6.06,10,6.84,15.86,1.41,10.43-2.87,14.44-13.25,13.11-3.85-.49-7.81-.98-11.62-.57-17.52,1.88-21.24,7.46-16.49,24.2,4.53,15.92,9.53,31.73,13.58,47.76,3.52,13.95-.82,18.66-15.2,18.13-2.27-.08-4.55-.33-6.8-.63-3.81-.51-8.38-.23-10.06-4.49-1.8-4.59,2.54-6.88,5.1-9.63,5.06-5.45,6.56-17.43,2.05-23.15-5.37-6.82-12.91-4.96-19.81-3.18-5.68,1.47-6.51,6.31-6.64,11.6-.51,20.08-13.11,27.08-30.81,17.35-4.32-2.36-7.27-5.67-6.94-10.8.35-5.57,5.02-6.52,9.14-6.94,11.1-1.15,16.31-8.09,19.14-17.91,5.33-18.56-2.31-27.1-25.26-27.21v-.02Z"/>
      <path class="cls-8" d="M318.97,146.79c4.53-.39,9.05-1.02,13.58-1.13,4.63-.12,9.32.41,11.7,5.26,2.4,4.88,1.04,9.59-1.66,13.87-4.84,7.66-24.36,15.39-33.09,13.4-3.79-.88-6.1-3.5-8.2-6.47-2.64-3.71-4.98-7.7-8.05-11-8.83-9.47-20.04-9.47-28.91-.2-4.28,4.45-8.24,9.22-13.54,12.54-9.57,6.02-23.31,5.02-30.81-2.27-4.28-4.14-6.19-9.22-4.73-15.06,1.45-5.68,6.49-6.95,11.33-7.74,3.83-.63,7.78-.41,11.66-.72,6.86-.55,11.41-4.28,13.91-10.57,3.03-7.64.51-12.8-7.7-14.32-10.8-2.03-19.97-7.6-29.46-12.5-5.8-3.01-8.5-8.03-7.52-14.51.92-6.11,5.08-9.65,10.78-11.33,6.31-1.86,10.84,1.11,13.95,6.19,1.66,2.72,3.75,4.24,6.56,5.37,25.9,10.43,51.81,11.12,77.75.23,3.91-1.64,7.33-3.69,9.89-7.46,3.61-5.33,9.06-7.21,15.41-5.55,5.88,1.52,9.85,5.22,10.67,11.33.86,6.39-1.74,11.29-7.44,14.59-9.83,5.7-19.5,11.7-30.75,14.34-6.1,1.43-12.62,2.62-11.39,11.45,1.07,7.66,7.78,12.83,16.08,12.19l-.02.06ZM295.04,130.01c-7.48,0-13.93-.2-20.36.08-4.06.18-10.39-3.07-11.64.12-1.97,5.02,3.77,8.85,7.17,12.56,1.72,1.89,3.91,3.38,5.92,5,1.95,1.58,3.97,2.13,6.06.16,5.1-4.84,10.8-9.22,12.87-17.89l-.02-.02Z"/>
      <path class="cls-8" d="M278.59,95.02c-16.23-.23-29.21-8.62-32.82-21.18-3.83-13.3,1.91-26.53,15.8-35.5,5.37-3.48,8.3-6.08-.2-9.08-2.83-1-3.67-3.56-2.7-6.43,1.17-3.46,3.89-5.78,7.29-5.39,3.67.43,6.94-.12,10.39-.94,3.69-.88,7.19.02,9.3,3.61,2.23,3.77,1.45,6.21-2.68,8.6-3.05,1.78-2.5,5.02,1.27,6.37,3.34,1.19,6.76,2.34,10.26,2.99,4.32.8,10.61-4.63,12.15,4.3.82,4.75,5.86,8.5,3.09,14.2-.59,1.19.47,3.15.61,4.75,1.82,20.9-10.57,34.03-31.78,33.7h.02ZM270.12,73.55c-2.29.2-4.94-1.47-6.11,1.37-.82,1.95.72,3.65,1.84,5.24,6.21,8.67,18.64,8.87,24.91.37.94-1.27,2.29-2.5,1.6-4.3-.74-1.97-2.62-1.52-4.12-1.43-6.17.35-12.29-.16-18.11-1.25ZM296.39,62.14c-.64-3.01-1.97-6.02-5.94-5.92-3.36.08-5.1,2.44-5.1,5.78s1.64,5.51,5.14,5.68c3.5.18,5.16-1.99,5.9-5.53v-.02ZM266.36,67.49c3.63.04,5.35-2.01,5.55-5.35.2-3.32-1.27-5.84-4.77-6.06-3.46-.23-5.35,1.93-5.55,5.31-.18,3.32,1.27,5.57,4.77,6.1Z"/>
      <path class="cls-2" d="M331.01,232.53c9.03-1.66,17.74-4.26,26.57-4.69,15.75-.76,29.03,12.66,29.03,27.99,0,16.84-15.86,33.21-32.16,33.19-15.49-.02-27.23-12.85-26.86-29.67.08-3.63,1.04-7.09-3.69-8.71-1.62-.55-3.07-1.68-2.25-4.43,2.07-7.15-2.58-5.31-5.57-3.28-3.87,2.62-6.58,2.93-8.22-1.86-1.41-4.14-.64-7.81,4-9.4,2.21-.74,5.8.63,5.16-3.73-.96-6.45,2.81-8.44,8.03-7.83,5.72.66,7.6,4.32,5.47,9.87-.27.7.31,1.74.51,2.58l-.02-.02ZM369.63,251.44c-.47-3.71-2.54-6.04-6.29-5.68-3.28.31-5.16,2.73-4.65,6.06.47,3.09,2.46,5.2,5.88,5.18,3.61,0,5.02-2.19,5.06-5.55ZM344.64,260.5c-3.5.08-5.26,1.89-5.16,5.39s2.36,5.37,5.43,5.55c3.36.21,5.29-1.86,5.1-5.39-.18-3.36-2.03-5.22-5.39-5.55h.02Z"/>
      <path class="cls-5" d="M418.74,62.61c-.35-4.47-.63-5.98-.59-7.5.18-6.58,4.16-9.47,10.16-9.01,5.98.47,9.42,3.99,8.79,10.45-.16,1.66-2.56,3.48.25,4.9,2.13,1.07,3.01-.29,4.59-1.78,6.68-6.33,10.84-5.57,14.46,2.73,1.04,2.36,2.54,3.38,4.22,4.81,6.17,5.27,6.17,13.4-1,16.66-4.96,2.25-4.61,5.08-4.75,8.95-.49,12.85-6.23,19.81-18.68,22.56-7.76,1.72-15.55,1.29-23.07-1.25-11.31-3.83-18.15-16.2-15.73-28.05,1.41-6.88,7.36-13.17,1.07-20.96-2.07-2.56.63-6.82,4-8.95,6.1-3.83,10.22.21,16.25,6.43h0ZM431.56,101.66c-3.46-2.58-7.27-1.35-10.67-2.19-2.5-.63-6.7-2.7-7.5.78-.96,4.18,3.34,5.8,6.97,6.31,4.18.57,8.5.76,11.19-4.88v-.02ZM418.64,88.3c-.16-2.72-.96-5.04-4.1-5.39-3.5-.39-5.51,1.62-5.8,4.79-.31,3.32,1.62,5.39,5.08,5.41,3.09.04,4.42-1.99,4.83-4.83v.02ZM434.72,95.33c2.91-.16,4.83-1.48,5-4.55.2-3.28-1.09-5.67-4.69-5.8-2.99-.12-4.71,1.7-5.1,4.55-.47,3.52,1.5,5.24,4.79,5.8h0Z"/>
      <path class="cls-6" d="M229.54,216.94c4.01,1.3,3.89,4.51-.37,9.63,1.31,1.95,5.67-.49,5.26,2.68-.51,3.85-4.4,6.64-7.79,6.04-12.21-2.15-11.41,3.28-8.95,12.25,3.2,11.68-3.69,25.38-13.93,30.61-11.62,5.96-25.67,2.34-35.85-9.24-9.08-10.33-10.43-22.72-3.61-33.15,7.21-11.04,21.18-16.27,33.29-11.43,7.07,2.83,11.41,5.08,10.51-6.06-.51-6.06,3.91-7.5,9.28-4.49,2.68,1.5,4.24-1.68,6.35-2.62,5.37-2.36,5.55.18,4.51,4.28-.78.35-1.74.82-.96,1.74.27.33,1.5-.16,2.29-.27l-.02.04ZM184.45,262.55c-4.81-2.64-6.04-8.69-11.14-11.43-2.72,12.64-.63,14.93,11.14,11.43Z"/>
      <path class="cls-6" d="M135.22,53.82c-5.1-2.32-8.42-4.57-5.74-9.03,2.29-3.81,5.8-3.59,9.32-1.64,1.58.88,2.81,2.73,4.98.88,2.6-2.21,6.37-6.33,8.77-2.73,2.29,3.4,6.41,8.19,3.16,13.26-2.52,3.95-.64,3.91,2.48,5.65,3.36,1.84,9.73,5.41,2.54,10.53-3.36,2.4-1.11,4.45-.47,6.7,4.67,16.25-4.28,32.74-19.87,36.55-17.04,4.16-33.91-5.02-37.78-20.57-3.95-15.9,7.07-34.5,22.52-37.9,2.75-.61,5.59-.96,10.06-1.72l.02.02ZM148.29,85.05c-.37-3.09-1.66-5.61-5.08-5.9-4-.33-5.94,2.19-5.92,5.84.04,3.24,2.13,5.41,5.43,5.51,3.42.1,5.02-2.23,5.57-5.47v.02ZM125.12,87.12c-.14-3.24-1.58-5.65-4.94-5.94-4.06-.37-5.88,2.34-5.82,5.9.06,3.11,1.89,5.51,5.37,5.51s5.04-2.19,5.39-5.47Z"/>
      <path class="cls-3" d="M271.05,347.3c-9.24-.27-18.32-1.35-25.24-8.34-2.48-2.5-4.9-2.19-7.87-2.09-4.2.16-4.84-3.56-5.84-6.64-.96-2.97-.25-5.55,2.93-6.02,4.67-.68,4.88-3.87,5.84-7.46,3.69-13.73,15.94-22.64,30.53-22.72,14.3-.08,25.53,8.22,29.83,22.06,1.19,3.83.9,8.58,6.92,8.97,3.16.2,2.66,3.22,2.42,5.41-.31,2.97-1.56,7.4-4.22,6.76-7.44-1.8-10.96,4.28-16.27,6.58-6.11,2.66-12.5,3.34-19.05,3.48l.02.02ZM254.08,315.61c.55,2.62,1.93,5.22,5.41,5.27,4.02.08,5.94-2.64,5.68-6.33-.23-3.2-2.21-5.43-5.8-5.26-3.58.18-5,2.48-5.29,6.33v-.02ZM289.42,315.46c.04-3.24-1.09-5.7-4.65-6.13-3.5-.41-5.55,1.33-5.86,4.79-.33,3.63,1.05,6.54,5.04,6.78,3.42.2,5.18-2.03,5.47-5.41v-.02Z"/>
      <path class="cls-11" d="M171.73,444.35c-6.54-1.09-12.56-4.24-17.15-9.55-4.14-4.79.76-5.18,3.59-5.94,6.11-1.6,11.41-3.71,9.94-11.64-.84-4.55-2.97-7.91-8.13-8.26-3.46-.23-8.11.66-7.81-4.71.27-4.77,4.83-5.67,8.63-6.47,4.75-1,8.09,1.33,10.59,5.24,1.62,2.54,3.87,5.22,7.05,3.89,3.56-1.48,1.07-4.45.35-6.68-1.35-4.24.8-6.15,4.47-6.97,3.87-.86,7.68-.31,8.44,4.2,1.31,7.66,5.04,7.83,9.63,3.22,6.45-6.49,8.97-1.78,10.92,3.52,1.09,2.95,1.27,6.41,1.09,9.59-.25,4.53-2.23,7.17-6.74,3.28-7.01-6.06-14.24-3.95-20.69.21-6.41,4.14-9.75,10.26-6.95,18.48,2.01,5.96-.96,8.52-7.29,8.6h.04Z"/>
      <path class="cls-12" d="M465.53,221.92c6.31.86,11.62,1.91,9.36,10.78-2.75,10.8.96,15.24,12.56,16.23,4.12.35,9.1-.8,10.2,4.94,1.09,5.78,1.31,11.76-2.36,16.88-2.03,2.81-3.99,1.99-6.17-.59-10.2-12.09-12.62-11.84-18.87,1.66-1.09,2.36-2.52,3.75-5.2,3.18-3.65-.76-5.88-3.3-5.96-6.76-.1-5.29.33-10.14-7.03-10.94-1.84-.2-2.89-3.36-2.17-5.84.8-2.77,2.64-4.36,5.65-4.45,2.7-.08,6.17,1.41,6.86-3.11.53-3.52-1.09-6-3.32-8.65-2.27-2.7-9.46-1.86-7.09-7.13,2.23-4.96,8.28-5.65,13.56-6.17v-.04Z"/>
      <path class="cls-12" d="M226.36,64.58c-1.64,1.56-3.85,2.66-4.3,4.24-1.68,5.92-4.32,5.31-8.01,1.86-4.71-4.42-6.43-2.17-7.21,3.13-.33,2.19,2.15,7.27-3.26,5.68-4.3-1.25-11.49.68-11.62-7.38-.04-1.93.57-3.87.64-5.8.39-9.12-3.95-13.52-13.09-11.98-4.77.8-7.83.45-8.65-4.55-1.04-6.27.61-11.88,6.66-14.83,4.47-2.17,7.58-.33,10.22,4.22,7.62,13.25,14.65,14.07,26.53,3.93,5.1-4.36,10.31-3.71,14.81.72,3.59,3.56,2.99,6.88-1.95,9.01-6.47,2.79-6.73,6.69-.76,11.72v.04Z"/>
      <path class="cls-3" d="M347.83,56.49c-2.79-1.95-5.53-3.63-7.99-5.68-3.4-2.83-3.54-6.19-.2-9.08,3.09-2.68,6.27-2.95,9.14.78,11.64,15.06,21.14,13.77,28.17-4,2.27-5.74,5.65-6.04,9.49-2.36,4.06,3.89,6.88,8.89,6.08,14.77-.84,6.17-6.33,4.04-10.12,4.9-7.97,1.8-12.5,8.28-10.41,15.69,1.13,3.99,2.75,7.68-2.09,9.96-4.84,2.31-8.36-.47-10.49-4.34-2.58-4.71-4.38-8.99-11.27-5.84-3.13,1.43-6.33-1.02-7.56-4.49-2.27-6.29,4.61-6.64,7.23-10.31l.02.02Z"/>
      <path class="cls-13" d="M367.15,419.17c15.45.43,15.55.31,15.75-15.26.06-4.1-1.05-9.34,4.77-10.18,5.63-.82,11.86-2.05,16.59,2.79,3.83,3.95,1.15,6.51-2.56,8.07-5.63,2.38-8.2,6.29-6.72,12.29,1.29,5.26,4.28,8.67,10.35,8.03,3.16-.33,4.75,1.21,5,4.45.57,7.42-4.08,11.53-9.75,14.26-5.84,2.83-7.09-1.39-9.01-6.19-2.79-7.03-11.31-6.78-18.03.33-2.46,2.6-4.84,3.67-7.52,1.62-5.35-4.08-5.24-10.08-4.47-16,.37-2.93,2.15-4.65,5.63-4.24l-.02.02Z"/>
      <path class="cls-5" d="M81.52,269.63c-4.65-.41-9.34-1-12.33-4.94-3.34-4.4.92-6.92,2.97-10.04,4.84-7.44,1.31-14.44-9.03-18.25-8.36-3.07-10.76-8.24-7.13-15.28.92-1.78,1.91-3.52,4.1-3.75,2.4-.25,3.56,1.48,4.06,3.42,1.21,4.59,3.81,7.6,8.75,7.68,6.04.1,7.46-3.87,7.68-9.01.08-1.72,2.03-3.3,3.4-2.85,7.11,2.31,8.32,10.35,13.36,15.08,3.54,3.34-3.87,4.98-7.87,6.02-4.81,1.25-7.33,5.06-8.28,9.9-.86,4.36.74,7.58,4.24,10.1,2.64,1.89,7.93,2.19,6.08,7.19-1.58,4.26-6.23,4.04-10,4.71v.02Z"/>
      <path class="cls-9" d="M417.12,297.91c1.52,1,2.03,1.13,2.05,1.35.7,7.03,4,16.88-1.19,20.28-6.45,4.2-15.39-.7-23.95-4.9,8.99-4.92,17.35-9.03,23.09-16.72h0Z"/>
      <path class="cls-9" d="M135.2,279.53c6.1,11.19,14.3,17.31,24.05,23.07-7.85,5.96-16.04,5.7-24.19,5.37-2.93-.12-3.26-2.7-3.46-5-.61-7.09-.21-14.05,3.59-23.44h0Z"/>
      <path class="cls-9" d="M256.01,387.62c10.73.49,19.97,2.7,29.32.57,4.79-1.09,4.79,2.21,3.26,5.2-2.81,5.57-7.31,9.79-11.98,13.81-2.25,1.93-4.18,1.17-6.02-.35-5.94-4.96-11.43-10.31-14.61-19.22h.02Z"/>
      <path class="cls-9" d="M295.04,130.01c-2.07,8.67-7.78,13.07-12.87,17.89-2.09,1.97-4.08,1.43-6.06-.16-2.01-1.62-4.18-3.11-5.92-5-3.4-3.71-9.14-7.56-7.17-12.56,1.25-3.18,7.56.06,11.64-.12,6.43-.27,12.87-.08,20.36-.08l.02.02Z"/>
      <path class="cls-9" d="M270.12,73.55c5.84,1.09,11.94,1.58,18.11,1.25,1.48-.08,3.38-.55,4.12,1.43.66,1.78-.68,3.03-1.6,4.3-6.27,8.5-18.7,8.3-24.91-.37-1.13-1.56-2.66-3.26-1.84-5.24,1.19-2.83,3.83-1.17,6.11-1.37Z"/>
      <path class="cls-9" d="M296.39,62.14c-.74,3.56-2.4,5.7-5.9,5.53-3.5-.18-5.14-2.34-5.14-5.68s1.74-5.7,5.1-5.78c3.97-.1,5.27,2.91,5.94,5.92v.02Z"/>
      <path class="cls-9" d="M266.36,67.49c-3.5-.53-4.94-2.77-4.77-6.1.18-3.4,2.09-5.55,5.55-5.31,3.5.23,4.96,2.73,4.77,6.06-.2,3.34-1.91,5.37-5.55,5.35Z"/>
      <path class="cls-9" d="M369.63,251.44c-.06,3.36-1.45,5.55-5.06,5.55-3.42,0-5.41-2.09-5.88-5.18-.51-3.32,1.37-5.74,4.65-6.06,3.75-.35,5.82,1.97,6.29,5.68Z"/>
      <path class="cls-9" d="M344.66,260.5c3.36.33,5.2,2.19,5.39,5.55.2,3.54-1.74,5.61-5.1,5.39-3.07-.2-5.33-2.05-5.43-5.55s1.64-5.31,5.16-5.39h-.02Z"/>
      <path class="cls-9" d="M431.56,101.66c-2.68,5.65-7.01,5.47-11.19,4.88-3.63-.51-7.93-2.11-6.97-6.31.8-3.48,5-1.41,7.5-.78,3.4.86,7.21-.39,10.67,2.19v.02Z"/>
      <path class="cls-9" d="M418.63,88.3c-.41,2.83-1.74,4.84-4.83,4.81-3.46-.04-5.37-2.09-5.08-5.41.29-3.18,2.31-5.2,5.8-4.79,3.15.35,3.97,2.68,4.1,5.41v-.02Z"/>
      <path class="cls-9" d="M434.72,95.33c-3.26-.57-5.24-2.31-4.77-5.82.39-2.85,2.11-4.67,5.1-4.55,3.59.16,4.88,2.54,4.69,5.8-.18,3.07-2.11,4.4-5.02,4.55v.02Z"/>
      <path class="cls-9" d="M184.45,262.55c-11.74,3.5-13.85,1.21-11.14-11.43,5.08,2.73,6.33,8.79,11.14,11.43Z"/>
      <path class="cls-4" d="M229.54,216.94c-.78.12-2.01.59-2.29.27-.78-.92.18-1.39.96-1.74.45.49.9.98,1.33,1.47Z"/>
      <path class="cls-9" d="M148.29,85.05c-.55,3.22-2.15,5.57-5.57,5.47-3.3-.1-5.39-2.27-5.43-5.51-.04-3.65,1.91-6.17,5.92-5.84,3.44.27,4.71,2.81,5.08,5.9v-.02Z"/>
      <path class="cls-9" d="M125.12,87.12c-.33,3.28-1.93,5.47-5.39,5.47s-5.31-2.4-5.37-5.51c-.08-3.56,1.76-6.27,5.82-5.9,3.38.31,4.81,2.7,4.94,5.94Z"/>
      <path class="cls-9" d="M254.08,315.61c.29-3.85,1.72-6.15,5.29-6.33,3.58-.18,5.57,2.07,5.8,5.26.25,3.69-1.66,6.41-5.68,6.33-3.5-.06-4.88-2.66-5.41-5.27v.02Z"/>
      <path class="cls-9" d="M289.42,315.48c-.29,3.36-2.07,5.61-5.47,5.39-3.99-.23-5.37-3.13-5.04-6.78.31-3.44,2.36-5.2,5.86-4.79,3.58.43,4.71,2.89,4.65,6.15v.02Z"/>
    </g>
  </g>
  <g id="Capa_3" data-name="Capa 3">
    <circle class="cls-7" cx="183.73" cy="237.71" r="5.37"/>
    <ellipse class="cls-7" cx="200.35" cy="254.31" rx="4.9" ry="6.21"/>
    <path class="cls-7" d="M122.99,98.26l25.28-3.24s-1.43,11.58-9.51,11.78-17.62-1.93-19.05-4.28,3.26-4.28,3.26-4.28l.02.02Z"/>
    <path class="cls-7" d="M264.94,329.09l25.28-3.24s-1.43,11.58-9.51,11.78c-8.09.2-17.62-1.93-19.05-4.28s3.26-4.28,3.26-4.28l.02.02Z"/>
    <path class="cls-7" d="M355.66,276.39l13.03-16.55s9.24,12.97,4.34,17.39-12.74,7.11-15.69,5.37-1.68-6.21-1.68-6.21h0Z"/>
    <g>
      <path class="cls-1" d="M132.64,497.16c.66-.27,1.27-.23,1.84.14.47.27.74.61.8.98.08.37,0,1.27-.25,2.68-.23,1.78-.47,3.09-.7,3.95-.23.94-.27,1.45-.14,1.54.14.04,1.02.27,2.6.7,1.6.37,2.56.72,2.89,1.05.23.23.37.43.43.61.04.16.04.53,0,1.09-.1.84-.29,1.33-.61,1.48-.31.14-1.45.23-3.42.27l-3.24.08-1.62,5.14c-.98,3.32-1.62,5.49-1.89,6.47-.27.84-.37,1.31-.27,1.41.04.04,1.19.21,3.44.49,3.01.33,4.86.59,5.59.78s1.21.55,1.45,1.05c.23.57.27,1.13.14,1.68-.14.57-.43.96-.84,1.19-.23.14-1.48.21-3.77.25-2.27.02-8.71.04-19.3.04-11.76,0-18.85-.04-21.24-.1s-3.83-.29-4.3-.66c-.33-.18-.57-.43-.74-.74-.16-.31-.14-.68.1-1.15.33-.66.86-1.11,1.62-1.37.74-.25,2.11-.43,4.08-.53l2.38-.14v-1.62c.04-.98-.02-2.62-.21-4.92-.14-2.31-.21-3.75-.21-4.36v-1.13l-2.38-.14c-3.65-.2-5.72-.74-6.19-1.68-.2-.33-.16-.7.08-1.13.51-1.04,1.74-1.64,3.65-1.84,1.04-.1,2.13-.14,3.3-.14h1.54l-.14-1.68c-.04-1.04-.16-2.46-.35-4.3l-.27-2.68.49-.57c.27-.43.68-.78,1.19-1.05l.78-.43.7.49c.57.37.9.76.98,1.15.1.39.08,1.39-.08,2.99-.23,3.38-.21,5.2.08,5.49s1.86.31,4.71.08l1.33-.14.14-1.89c.2-3.38.39-5.39.63-6.06.1-.37.33-.64.7-.84.33-.2.66-.2.98,0,.33.23.63.47.92.7l.43.35-.14,3.59-.14,3.65h.84c1.5,0,3.32-.23,5.49-.7.66-.1,1.09-.41,1.31-.96s.41-1.78.61-3.69c.1-1.04.27-1.72.53-2.03.25-.33.74-.49,1.45-.49.66,0,1.04.16,1.15.49s.2,1.43.25,3.3l.08,3.24h.98c.74,0,2.15-.04,4.22-.14l3.16-.08.35-2.46c.43-2.62.76-4.36,1.02-5.2s.61-1.37,1.02-1.54l.04-.04ZM99.59,482.45c.47-.2.94-.14,1.41.14s.78.66.92,1.13c.14.61-.47,1.68-1.84,3.24-.74.8-1.13,1.29-1.13,1.48,0,.14.16.23.49.27.51.14,3.91.2,10.16.14,6.25-.04,12.01-.16,17.27-.35,2.72-.1,5.51-.16,8.36-.21h3.09l.49.7c.33.47.51,1.04.53,1.68.02.66-.08,1.13-.31,1.41-.37.43-1.72.72-4,.88-2.31.16-7.58.33-15.82.53-15.1.33-22.84.57-23.21.7-.1,0-.33.04-.7.14-.33.1-.84.7-1.54,1.84-.84,1.37-1.5,2.23-1.97,2.6-.47.37-1.05.49-1.76.35-.27-.1-.45-.2-.53-.27-.08-.1-.1-.27-.1-.57-.04-.37.33-1.27,1.13-2.68,1.6-2.91,3.36-5.76,5.31-8.58s3.2-4.34,3.77-4.57h0ZM91.15,534.84c1.17-.27,2.77.33,4.79,1.84,1.45,1.07,2.42,2.11,2.89,3.09.23.47.27.9.14,1.27-.66,1.21-2.25,1.05-4.79-.49-.8-.51-1.68-1.19-2.68-2.01s-1.6-1.39-1.84-1.72c-.14-.27-.2-.47-.14-.57s.23-.31.57-.63c.47-.47.82-.72,1.05-.78h0ZM106.68,513.55c-.14-.23-.29-.37-.45-.39s-.57-.04-1.23-.04c-2.62.04-4.14.45-4.57,1.19-.27.57-.31,3.03-.08,7.38.1,1.5.21,2.44.39,2.81.16.37.55.59,1.15.63.47.04,1.27,0,2.42-.18,1.15-.16,1.84-.33,2.07-.53.27-.2.47-.7.57-1.54.1-.94.12-2.66.08-5.14-.04-2.48-.16-3.89-.35-4.22v.02ZM103.81,534.57c.47-.27.92-.43,1.33-.43.74,0,2.07.68,3.95,2.03,1.13.84,1.76,1.37,1.89,1.58s.23.76.27,1.66l.08,1.62-.57.27c-.43.2-.98.16-1.68-.08-1.17-.43-2.34-1.15-3.52-2.19-.61-.51-1.25-1.13-1.89-1.86-.66-.72-.98-1.13-.98-1.23,0-.57.37-1.04,1.13-1.41l-.02.02ZM116.68,512.34c-.23-.2-1.17-.25-2.81-.21-1.64.04-2.68.2-3.09.43-.23.14-.43.35-.57.63-.14.47-.27,2.31-.39,5.53-.12,3.2-.14,5.08-.04,5.59.1.23.31.39.63.45.33.08,1.29.18,2.89.31,1.74.14,2.68.12,2.81-.08.43-.37.66-3.09.7-8.17,0-2.85-.04-4.36-.14-4.49v.02ZM117.31,534.71c.61-.37,1.5-.39,2.68-.08.98.23,2.07.7,3.24,1.41,1.17.7,1.99,1.37,2.46,1.97.61.84.63,1.62.04,2.36-.59.72-1.45,1-2.56.8-.8-.2-2.11-.86-3.95-2.01s-2.89-1.97-3.16-2.5c-.1-.23,0-.57.27-.98.27-.43.61-.74.98-.98ZM128.29,512.2c-.33-.1-1.6-.14-3.79-.14-.2,0-.45-.02-.78-.08-1.54,0-2.48.14-2.77.39-.31.25-.57,1.19-.8,2.77-.04.33-.08.59-.08.78-.8,5.29-1.07,8.2-.84,8.71l.14.43,2.38-.08c1.31-.04,2.21-.16,2.68-.31.47-.16.92-.57,1.33-1.23.47-.66,1.04-2.13,1.72-4.43s1.07-4.08,1.15-5.35c.04-.66.06-1.04.04-1.15s-.16-.21-.39-.31h.02ZM131.94,533.44c.37-.2.72-.27,1.05-.27.74.14,2.09.68,4,1.62,1.91.94,3.48,1.84,4.65,2.68.74.51,1.21,1.04,1.41,1.54.37,1.04.21,1.89-.49,2.6-.37.37-.9.51-1.54.43-.7-.04-1.66-.45-2.89-1.19-2.77-1.64-4.9-3.2-6.41-4.71-.66-.61-.96-1.11-.92-1.5.04-.39.43-.78,1.13-1.15v-.04Z"/>
      <path class="cls-1" d="M163.1,484.85c.7-.1,1.89-.14,3.56-.1,1.66.02,2.95.1,3.83.25,1.74.33,3.07.94,4,1.84.7.7,1.09,1.54,1.19,2.5s-.1,2.21-.57,3.77c-.94,3.18-1.5,5.35-1.68,6.47-.2,1.13-.2,2.13,0,3.03.23,1.04,1.21,3.48,2.95,7.31.61,1.41.98,2.32,1.13,2.73.14.43.23,1.04.27,1.84.1,1.17.06,2.13-.1,2.89s-.53,1.68-1.09,2.81c-1.04,2.11-2.05,3.56-3.07,4.32-1.02.78-2.15.98-3.42.61-1.64-.47-3.18-1.21-4.65-2.25l-.98-.7v5.14c0,8.48-.31,13.05-.92,13.71-.2.23-.57.33-1.13.31-.57-.02-.98-.18-1.27-.45-.2-.2-.31-.61-.35-1.27-.04-.66-.1-2.83-.14-6.54-.1-5.35-.08-11.25.08-17.72.14-14.63.04-22.54-.27-23.77-.2-.51-.68-1.19-1.48-2.03l-1.19-1.27.98-.92c1.41-1.31,2.83-2.13,4.3-2.46l.02-.04ZM166.32,488.86c-.9-.1-1.39-.12-1.48-.08-.51,0-.82.16-.92.49-.04.23-.04,4.55,0,12.93l.14,12.52,1.41,1.97c1.78,2.58,3.16,4.1,4.14,4.57.84.33,1.66.2,2.46-.43.37-.33.78-.96,1.23-1.89s.8-1.95,1.09-3.03l.27-1.62-1.89-3.73c-1.88-3.71-2.95-6.41-3.24-8.09-.27-1.68-.04-4.1.7-7.25.37-1.68.59-2.77.63-3.26s-.04-.88-.27-1.15c-.33-.37-.92-.74-1.8-1.13-.86-.37-1.7-.66-2.5-.84l.04.02ZM186.23,483.58c.9-.1,3.13-.16,6.72-.18,3.59-.02,6.17,0,7.78.1,2.91.14,4.96.51,6.15,1.13,1.19.61,2.31,1.8,3.34,3.59l.84,1.68-.08,1.54c-.1,2.15-.37,3.87-.84,5.14-.33,1.07-1.13,2.75-2.38,5.02s-2.23,3.73-2.89,4.4c-.61.8-1.54,1.31-2.81,1.54s-4.53.61-9.77,1.13c-3.75.37-5.76.63-6.06.78-.27.1-.37.43-.27.98.1.37.14,3.69.14,9.94s-.02,11.08-.08,14.46l-.08,3.44h.7c1.37-.04,2.7-.37,4-.98.9-.37,2.38-1.43,4.47-3.13,2.09-1.72,3.09-2.66,2.99-2.85-.04-.1-.61-.86-1.68-2.32-2.62-3.61-3.83-6.37-3.59-8.3.1-.74.29-1.54.61-2.38s.63-1.45.96-1.84c.37-.47,1.07-.86,2.11-1.19,2.38-.8,4.53-1.21,6.41-1.27.66-.04,1.13-.04,1.41,0s.74.23,1.41.57c1.04.47,1.74,1.04,2.15,1.72.39.68.63,1.62.66,2.85,0,1.31-.18,2.54-.53,3.65-.35,1.13-1.07,2.73-2.15,4.84-.94,1.74-1.39,2.68-1.33,2.81,0,.43,1.78,1.95,5.35,4.57,2.34,1.68,3.65,2.73,3.95,3.16.51.74.51,1.39-.04,1.89s-1.47.8-2.77.84h-1.05l-1.33-1.27c-1.41-1.21-3.59-2.91-6.54-5.06l-1.33-.92-1.89,1.89c-2.58,2.48-4.42,3.99-5.49,4.49-1.31.7-2.85,1.17-4.65,1.41-1.78.23-3.03.18-3.77-.18s-1.25-.82-1.54-1.41c-.31-.59-.55-1.54-.74-2.85-.2-1.54-.2-9.06,0-22.58.14-5.96.25-12.31.35-19.07.04-6.6.21-10.2.49-10.76.33-.66,1.25-1.04,2.73-1.13l-.02.08ZM199.59,487.94c-3.79-.27-6.92-.31-9.36-.08-1.84.23-2.91.68-3.24,1.33-.23.43-.35,1.21-.35,2.38l-.08,1.89,7.66-.27,7.66-.21.92.43c1.54.7,2.44,1.29,2.68,1.76.23.43-.04.82-.84,1.19-.43.23-1.04.39-1.86.49s-2.87.25-6.15.49c-3.15.2-5.78.37-7.95.57-1.41.2-2.21.27-2.38.27-.1,0-.14.51-.1,1.5.02,1.02.08,2.03.18,3.09.1,1.05.16,1.62.21,1.72.14.14,1.41.12,3.79-.08,6.37-.51,10.35-1.09,11.96-1.76.61-.27,1.27-.96,2.01-2.01.72-1.05,1.27-2.25,1.66-3.56.43-1.17.63-2.52.63-4.04s-.23-2.54-.7-3.07c-.84-1.17-2.95-1.88-6.33-2.11v.08ZM202.97,517.77c-.51-.1-1.19-.16-2.01-.18s-1.39,0-1.72.04c-.7.2-1.21.53-1.5,1.02-.31.49-.49,1.25-.53,2.29-.04.57-.02.98.08,1.23.1.25.33.78.7,1.58,1.27,2.48,2.13,3.79,2.6,3.95.33.14.92-.47,1.76-1.84,1.17-1.84,1.99-3.54,2.46-5.14.51-1.54-.1-2.54-1.84-2.95h0Z"/>
      <path class="cls-1" d="M237.3,483.5c3.56-.14,11.45-.16,23.64-.04s18.64.27,19.34.45c1.07.23,1.62.74,1.62,1.54s-.29,1.47-.88,1.84-1.62.66-3.13.84c-1.5.1-2.79.14-3.87.14h-1.84l.14,4.84c.1,3.61.14,9.47.14,17.58,0,15.1-.39,23.79-1.19,26.1-.27.8-.92,1.72-1.89,2.77s-1.76,1.62-2.32,1.72c-.84.14-1.45-.2-1.84-.98-.37-.8-.31-1.56.21-2.32.9-1.21,1.48-2.21,1.8-2.95s.53-1.86.66-3.3c.1-1.27.16-8.19.18-20.79.02-12.58,0-19.52-.1-20.79-.1-1.04-.23-1.56-.43-1.62-.51-.18-6.58-.47-18.21-.84-10.92-.33-16.76-.61-17.5-.84-.33-.14-.61-.37-.8-.7s-.27-.63-.18-.92c.33-.98,2.48-1.56,6.47-1.76l-.02.02ZM237.14,497.08c.33-.2,2.68-.2,7.03-.04,4.36.16,7.05.39,8.09.66,1.54.37,2.93,1.17,4.14,2.38.61.61,1.02,1.13,1.23,1.58s.31,1.07.31,1.86c0,1.78-.21,3.38-.66,4.83-.45,1.43-1.33,3.36-2.64,5.8-.98,1.68-1.54,2.79-1.68,3.3-.27.8-.72,1.31-1.31,1.54s-1.95.49-4.12.78c-2.15.23-3.91.47-5.27.7-2.01.33-3.42.47-4.22.43s-1.39-.33-1.76-.84c-.43-.57-.63-4.45-.63-11.68,0-4.73.1-7.54.27-8.44.27-1.6.68-2.56,1.19-2.89l.02.02ZM250.66,502.35c-.66-.27-2.19-.43-4.57-.43-3.56-.1-5.78.1-6.68.57-.33.14-.53.27-.61.39s-.14.39-.18.8c-.1.61-.2,2.73-.31,6.37-.12,3.63-.16,5.55-.1,5.72s.35.27.92.27,1.89-.12,4-.35c4.22-.43,6.58-.82,7.11-1.19.33-.23.74-.88,1.23-1.93s.88-2.09,1.15-3.13c.33-1.21.49-2.42.49-3.59v-1.84l-.7-.63c-.51-.43-1.09-.78-1.76-1.05v.02Z"/>
      <path class="cls-1" d="M313.17,482.25c.7-.27,1.37-.31,1.97-.1.61.21.92.53.92.96,0,.47-1.33,1.64-4,3.52-1.88,1.31-3.28,2.34-4.22,3.09-.94.7-1.95,1.6-3.07,2.72s-1.66,1.74-1.66,1.93.21.27.63.27c.7,0,2.75-.43,6.15-1.27,3.4-.84,5.35-1.43,5.88-1.76.33-.23.55-.47.63-.7.14-.33.37-.66.7-1.02s.63-.57.92-.66c1.07-.37,2.79,1.02,5.14,4.14.74.98,1.17,1.74,1.27,2.25.1.51-.12.98-.63,1.41-.94.84-2.34.86-4.22.08-.8-.33-1.52-.49-2.19-.49-1.97,0-4.79.37-8.44,1.13-1.91.43-3.87.66-5.84.7-1.64.04-2.68.02-3.13-.08-.45-.1-.9-.39-1.37-.92-.37-.43-.57-.74-.61-.96-.02-.21.06-.61.25-1.15.43-1.17,1.64-2.81,3.65-4.92,4.32-4.42,8.07-7.13,11.25-8.17h0ZM303.81,502.22c.1-.27.31-.41.63-.39.33.02.92.2,1.76.53l1.54.57,1.48-.27c1.07-.23,2.56-.31,4.43-.25,1.88.08,3.13.21,3.73.45.51.23,1.09.68,1.76,1.33.66.66,1.04,1.19,1.13,1.62.43,1.41.61,8.91.57,22.51l-.08,9.85-.63,1.19c-.61,1.41-1.35,2.34-2.21,2.81s-1.62.37-2.29-.27c-.27-.27-.45-.49-.49-.61s-.02-.33.08-.66c.14-.51.43-1.21.84-2.11.43-.94.66-1.97.7-3.09.04-1.07.02-2.36-.08-3.87l-.14-2.19h-.49c-.23,0-.8.1-1.68.27-.7.14-2.38.39-5.06.78-3.85.47-5.84.82-5.98,1.05-.04.23-.14,2.01-.27,5.35-.1,2.68-.2,4.3-.31,4.88s-.37.88-.74.88c-.27,0-.61-.14-.98-.43l-.63-.43.08-4.65c.04-4.92.37-9.98.98-15.2.66-5.53.98-9.38.98-11.53,0-1.13.04-2.11.14-2.95.14-.8.35-1.82.63-3.07.27-1.23.49-1.95.63-2.15l-.04.04ZM315.15,507.57c-.23-.1-1.35-.16-3.34-.18s-3.2,0-3.61.04c-.57.1-.96.21-1.19.39s-.43.45-.61.84c-.16.39-.37,1.19-.63,2.38-.25,1.19-.39,2.01-.39,2.42v.7h2.68c3.32,0,5.47.2,6.41.57,1.04.51,1.37,1.66.98,3.44l-.14.63-4,.14c-3.95.1-6.06.23-6.33.43-.2.14-.33.49-.43,1.05-.14.61-.31,1.74-.49,3.42s-.25,2.52-.21,2.56c.1.1,1.7.02,4.83-.21s4.98-.43,5.59-.57c.1,0,.21-.02.35-.08.8-.14,1.27-.47,1.41-.98s.21-2.19.21-5v-1.19c0-6.94-.35-10.55-1.05-10.82l-.02.02ZM329.62,516.15c.57-.43,1.07-.47,1.54-.14.43.27.7,1.5.84,3.65.1,1.27.18,2.01.25,2.25.08.23.29.31.66.21,2.54-.47,7.15-1.09,13.85-1.89l2.46-.35.84.43c.43.2.78.51,1.09.96.31.45.45.9.45,1.37,0,.27-.14.63-.43,1.02-.27.39-.57.66-.84.8-.33.14-3.26.57-8.79,1.27-5.59.7-8.54,1.13-8.87,1.27-.47.23-.78.55-.96.92-.16.37-.29,1.02-.39,1.89-.1,1.21-.14,2.54-.14,3.95v2.25l.63.92c.47.66.92,1.07,1.33,1.23.41.16,1.27.25,2.52.25,2.34,0,4.55-.33,6.6-.98,2.48-.84,4.9-2.01,7.25-3.52,1.88-1.21,3.28-1.84,4.22-1.84.66,0,1.13.14,1.41.43.47.61.51,1.23.1,1.86-.41.63-1.37,1.54-2.91,2.72-3.01,2.25-5.31,3.63-6.95,4.14-1.41.47-3.38.82-5.94,1.05s-4.49.25-5.8.08c-1.27-.23-2.48-.74-3.63-1.5-1.15-.78-1.84-1.58-2.07-2.42-.27-.94-.31-4.12-.1-9.53.21-5.41.53-9.06.96-10.94.2-.84.45-1.43.78-1.76l.04-.04ZM331.24,484.91c.23-.04.37-.1.41-.14.1,0,.33.1.7.27.37.2.63.35.76.49.14.2.25,1.07.35,2.68.1,1.6.23,2.48.43,2.68s2.01.21,5.49.08c4.83-.23,8.01-.31,9.55-.25,1.54.08,2.44.31,2.68.74.1.23.14.72.14,1.48s-.1,1.19-.27,1.33c-.23.23-1.21.45-2.91.63-1.72.2-5.31.47-10.8.84-2.48.2-3.99.39-4.49.63-.51.23-.7.82-.57,1.76.1.9.27,1.95.57,3.16s.51,2.01.7,2.38c.57,1.07,1.52,1.91,2.89,2.5s2.81.76,4.36.53c.61-.04,1.84-.27,3.65-.7,3.28-.8,5.29-1.07,6.06-.84.61.2,1.04.72,1.27,1.62.04.33-.14.63-.57.92-.98.66-3.15,1.37-6.47,2.11-1.41.33-3.24.47-5.49.43l-3.44-.08-1.48-.78c-2.11-1.04-3.42-1.95-3.95-2.73-.7-1.13-1.27-4.71-1.68-10.76-.06-1.45.1-3.5.45-6.11s.7-4.12,1.02-4.49c.2-.2.39-.31.63-.35h.02Z"/>
      <path class="cls-1" d="M373.87,483.66c.14-.14.47-.23.98-.27.51-.04.96,0,1.33.14l.35.08.08,6.11.14,6.19,1.41-.08c2.44-.04,4.2.16,5.27.63.7.27,1.11.74,1.23,1.41s-.08,1.27-.61,1.84c-.37.43-.9.7-1.54.84-.66.14-2.13.37-4.43.7-.98.14-1.52.27-1.62.43-.37.7-.59,10.57-.63,29.62-.1,5.06-.25,8.19-.49,9.36l-.98.98-2.11-.35-.43-1.33c0-4.08.1-12.39.27-24.89.14-2.29.23-5.04.27-8.22l-.08-5.06-.43-.27c-.27-.2-1.21-.37-2.81-.57-1.45-.1-2.4-.21-2.85-.35-.45-.14-.74-.37-.88-.7-.2-.33-.29-.68-.31-1.09-.02-.39.06-.68.25-.88.43-.33,1.78-.68,4.08-1.05.27-.04,1.15-.16,2.6-.35l1.05-.27.08-3.65c.04-4.32.2-7.03.43-8.17.04-.33.16-.57.35-.7l.02-.04ZM393.35,511.99c.84-.9,1.72-1.05,2.6-.49.47.27.74.61.84.98s.04.94-.14,1.68c-.23,1.04-.29,1.66-.18,1.86.12.21.72.57,1.8,1.09,1.27.61,2.15,1.15,2.64,1.66.49.49.8,1.09.96,1.8.27,1.27.27,2.97-.04,5.1s-.78,4.12-1.45,5.94c-.57,1.5-1.41,3.26-2.54,5.31-1.13,2.03-2.03,3.5-2.73,4.4-.27.33-.51.53-.7.61-.2.08-.61.1-1.27.1-1.04.04-1.6,0-1.68-.18s.1-.76.57-1.8c.51-1.13,1.15-2.09,1.89-2.89,1.27-1.47,2.25-2.93,2.95-4.43.61-1.37.96-3.3,1.05-5.84.04-1.5.02-2.48-.08-2.95-.1-.47-.39-.98-.92-1.54-.27-.37-.74-.72-1.37-1.05s-1.21-.55-1.72-.63c-.47-.04-.98.04-1.5.25-.55.21-.96.53-1.23.96-1.07,1.41-2.89,4.88-5.41,10.41-1.13,2.44-1.95,4.12-2.5,5.02-.55.92-1.02,1.48-1.45,1.72-.61.43-1.07.47-1.41.14-.33-.33-.33-.98,0-1.93s1.39-3.44,3.16-7.42c2.48-5.49,3.63-8.36,3.44-8.65-.1-.2-.63-.45-1.62-.78-1.04-.33-1.68-.57-1.93-.74s-.39-.39-.39-.66c0-1.04,1.52-1.88,4.57-2.54,1.64-.33,2.72-.74,3.24-1.27.18-.14.55-.59,1.05-1.33.47-.7.96-1.33,1.48-1.89v.02ZM403.25,483.09c.57-.61,1.25-.7,2.03-.27,1.27.61,1.43,1.52.49,2.73-.61.8-.7,1.27-.27,1.41.14.1,1.21.21,3.24.35,2.44.23,4.08.43,4.92.57s1.6.37,2.25.7c.74.37,1.52,1.05,2.32,2.01s1.23,1.78,1.33,2.42c.23,1.84-1.76,5.26-5.98,10.28-1.54,1.91-2.64,3.09-3.26,3.52s-1.19.35-1.66-.21c-.57-.66-.74-1.31-.57-1.97.2-.33.84-1.13,1.97-2.38,2.85-3.24,4.3-5.74,4.3-7.52.04-.66-.08-1.13-.39-1.41s-.86-.49-1.66-.63c-.66-.04-2.09-.14-4.3-.27s-3.77-.21-4.71-.21h-1.05l-.92,1.89c-2.72,5.43-4.43,8.58-5.14,9.42-.43.47-.8.66-1.13.57s-.61-.33-.84-.7c-.23-.37-.33-.72-.27-1.05.1-.27.86-1.95,2.32-5,1.5-3.05,2.25-4.73,2.25-5.06l.08-.49-2.68-.35c-1.74-.14-2.83-.33-3.3-.57-.51-.2-.84-.55-.96-1.09s.04-.98.45-1.31c.51-.37,2.34-.84,5.49-1.41,1.88-.27,3.01-.49,3.38-.63.27-.14.66-.61,1.13-1.41.37-.8.74-1.43,1.13-1.89v-.02ZM415.56,509.39c.74-.43,1.39-.37,1.89.14.33.33.51.68.53,1.09.02.39-.06,1.19-.25,2.36-.2,1.04-.21,1.62-.08,1.76.2.2,1.23.63,3.16,1.33,2.58.9,4.32,1.68,5.24,2.36s1.47,1.56,1.66,2.64c.14.8,0,1.93-.39,3.42s-.98,2.99-1.72,4.53c-.9,1.74-2.72,4.77-5.49,9.06l-2.54,4h-3.79v-2.32l1.76-1.84c1.97-2.11,3.67-4.61,5.14-7.52.74-1.5,1.21-2.6,1.41-3.3s.27-1.66.27-2.89-.12-2.05-.35-2.36-1.04-.66-2.38-1.09c-2.44-.8-3.85-1.07-4.22-.84-.27.1-1.31,1.97-3.09,5.63-2.68,5.26-4.9,9.3-6.68,12.17-.9,1.41-1.6,2.31-2.15,2.72-.55.39-1.11.45-1.72.18-.61-.23-.8-.66-.57-1.31s1.31-2.62,3.24-5.94c1.74-3.01,2.95-5.24,3.65-6.68,1.45-3.01,2.19-4.92,2.19-5.76,0-.2-.59-.59-1.76-1.19-.84-.43-1.58-.88-2.21-1.37s-.96-.84-.96-1.02c0-.1.14-.35.43-.78l.35-.57,3.3-.08,3.3-.08.14-.7c.66-2.34,1.21-3.95,1.68-4.79.23-.43.57-.74.98-.98l.02.02Z"/>
      <path class="cls-1" d="M461.43,479.15c1.17-.2,2.81-.1,4.92.27.98.2,2.52.8,4.61,1.86,2.09,1.05,5.78,3.11,11.08,6.15,4.96,2.77,8.05,4.47,9.22,5.1,1.17.63,2.5,1.27,4,1.93,1.78.7,2.95,1.33,3.52,1.86.57.55.84,1.23.84,2.07,0,.47-.02.76-.08.88-.04.12-.21.27-.49.45-.33.23-.86.31-1.62.21-1.13-.1-2.23-.33-3.3-.7-1.07-.37-2.77-1.13-5.06-2.25-5.02-2.54-10.12-5.49-15.34-8.87-4.69-3.05-8.11-4.73-10.28-5.06-.98-.14-2.48.27-4.49,1.27-1.31.66-2.62,1.52-3.95,2.6s-3.97,3.48-7.95,7.17c-2.01,1.88-3.54,3.26-4.53,4.14-1.02.9-1.86,1.56-2.56,2.03-.7.47-1.19.66-1.45.61-.25-.08-.49-.29-.66-.66-.27-.51-.31-.98-.08-1.41s.98-1.17,2.25-2.25c1.37-1.27,3.01-2.81,4.92-4.65,5.02-4.88,9.16-8.48,12.44-10.82,1.6-1.17,2.93-1.84,4-1.97l.02.04ZM461.35,502.92c9.89-.14,15.82-.2,17.8-.18,1.97.02,3.16.14,3.59.31,1.37.66,2.54,1.5,3.52,2.54l.63.63-.08,2.03c-.1,1.31-.31,2.34-.63,3.09-.33.66-1.07,1.76-2.25,3.3s-2.09,2.66-2.73,3.3c-1.27,1.17-2.73,2.01-4.43,2.54-.84.27-3.18.47-7.03.57s-7.81.08-11.88-.04c-4.08-.12-6.49-.29-7.25-.53-.74-.27-1.29-.55-1.62-.78-1.07-.74-2.01-3.48-2.81-8.17-.33-2.15-.49-3.59-.45-4.32.02-.72.29-1.45.8-2.15.51-.74.9-1.23,1.15-1.45s.72-.37,1.37-.45c.7-.1,4.81-.2,12.31-.27v.02ZM457.62,507.92c-1.31-.2-2.85-.31-4.65-.35-1.78-.04-2.89-.02-3.3.08-.47.14-.76.33-.88.61-.12.25-.14.84-.04,1.72.04,1.04.2,2.36.43,3.97.23,1.62.39,2.52.49,2.72.14.2.33.33.57.43.23.04.96,0,2.15-.1,1.19-.12,1.86-.23,1.97-.35s-.2-1.58-.96-4.4c-.27-1.07-.43-1.8-.43-2.19s.14-.7.43-.98c.27-.27.68-.41,1.19-.39.51.02.92.18,1.19.45.57.57,1.31,2.07,2.25,4.49.43,1.04.78,1.7,1.09,2.01s.74.45,1.31.45h.92v-1.13c0-.8-.08-1.95-.21-3.44-.14-1.5-.25-2.36-.35-2.6-.1-.27-.35-.49-.78-.61s-1.21-.25-2.38-.39h0ZM454.45,493.74c1.07-.08,4.49-.08,10.24-.04,5.74.04,9.1.12,10.1.21.98.1,1.66.25,2.03.45.37.21.7.63.98,1.23.33.74.33,1.31.04,1.68-.31.37-1.04.66-2.21.84-.9.1-4.2.14-9.92.14-6.6,0-10.94-.12-12.97-.35s-3.07-.72-3.07-1.48c0-.57.25-1.05.74-1.5s1.11-.76,1.86-.96c.37-.1,1.09-.18,2.19-.25v.04ZM464.59,523.32c3.56-.47,6.45-.16,8.65.92,1.37.66,2.36,1.68,3.03,3.09l.43.98v6.47c0,2.34,0,4.02-.04,5.06-.02,1.04-.12,1.95-.27,2.73-.16.8-.37,1.31-.63,1.54s-.66.51-1.23.84l-.92.57-7.46-.27c-5.72-.14-9.38-.31-10.98-.49-1.6-.2-2.7-.59-3.3-1.19l-.63-.57v-5.41c.04-4.73.35-8.2.92-10.41.27-.9.51-1.5.7-1.84.2-.37.61-.63,1.27-.78s2.42-.37,5.27-.7c1.78-.2,3.52-.37,5.2-.57l-.02.04ZM470.49,528.73c-.84-.43-2.34-.57-4.49-.43-5.29.37-8.71.78-10.28,1.19-.47.14-.9.39-1.27.74s-.57.66-.57.96c0,.2.16.43.49.7.2.2.45.29.8.31s1.48,0,3.42-.04c5.72-.14,9.01.02,9.85.49.94.47,1.07,1.25.43,2.32-.37.61-.96,1.02-1.76,1.23-.8.21-2.48.43-5.06.66-3.95.33-6.27.55-6.99.66s-1.13.29-1.23.53c-.04.2-.02.61.08,1.27l.27,1.05,7.66-.14c5.06-.04,8.11-.12,9.14-.21l1.48-.14-.14-3.52c-.1-2.72-.27-4.59-.53-5.63-.25-1.04-.68-1.72-1.31-2.03h0ZM471.06,508.41c-.14-.04-1.07-.1-2.81-.14-1.5-.1-2.44-.08-2.81.04s-.63.49-.78,1.09c-.14.51-.23,1.6-.27,3.26-.04,1.66-.02,2.62.08,2.85.27.51,1.07.78,2.38.78.57,0,1.04-.2,1.41-.61.37-.39.86-1.23,1.48-2.5,1.45-2.95,1.89-4.55,1.33-4.79h0ZM481.82,508.41c-.2-.23-1.09-.37-2.73-.43-1.6,0-2.54.08-2.81.21-.27.14-.66.66-1.13,1.54-.61,1.17-1.25,2.34-1.89,3.52-.84,1.45-1.19,2.23-1.02,2.32.16.1,1.31.14,3.42.14l3.16-.08.49-.63c.33-.43.8-1.27,1.45-2.56s1.02-2.25,1.15-2.85c.2-.61.16-1.02-.08-1.19Z"/>
    </g>
  </g>
  <g id="Capa_5" data-name="Capa 5">
    <path class="cls-10" d="M74.52,408.78c11.72-2.93,7.38,10.08,6.82,10.24s1.86,2.13,1.86,2.13l12.07-4.77c3.15-1.23,6.7.14,8.19,3.16h0c1.5,3.05.39,6.74-2.54,8.46-3.87,2.27-7.52,6.76-4.08,13.05s8.4,6.19,12.27,5.08c3.22-.92,6.64.61,7.93,3.71l.23.57c1.37,3.3-.21,7.09-3.52,8.46l-31.78,13.15c-3.26,1.35-6.99-.16-8.42-3.38l-13.69-31.08c-1.47-3.32.08-7.19,3.42-8.6l3.69-1.56c3.69-1.54,5.02-6,2.97-9.44-.47-.76-.74-1.45-.66-1.95.29-2.13.7-6.11,5.26-7.25v.02Z"/>
  </g>
</svg>